<svg id="Layer_1" enable-background="new 0 0 512 512" height="512" viewBox="0 0 512 512" width="512" xmlns="http://www.w3.org/2000/svg"><g><g fill="#e84941"><path d="m96.436 49.964h319.127c8.528 0 15.442-6.919 15.442-15.453s-6.914-15.453-15.442-15.453h-319.127c-8.528 0-15.442 6.919-15.442 15.453s6.914 15.453 15.442 15.453z"/><path d="m390.515 81.2h-269.03c-8.528 0-15.442 6.919-15.442 15.453s6.914 15.453 15.442 15.453h269.03c8.528 0 15.442-6.919 15.442-15.453s-6.914-15.453-15.442-15.453z"/><path d="m152.874 179.087h206.252c8.528 0 15.442-6.919 15.442-15.453s-6.914-15.453-15.442-15.453h-206.252c-8.528 0-15.442 6.919-15.442 15.453s6.914 15.453 15.442 15.453z"/><path d="m415.564 462.036h-319.128c-8.528 0-15.442 6.919-15.442 15.453s6.914 15.453 15.442 15.453h319.127c8.528 0 15.442-6.919 15.442-15.453s-6.913-15.453-15.441-15.453z"/><path d="m106.043 415.347c0 8.534 6.914 15.453 15.442 15.453h269.03c8.528 0 15.442-6.919 15.442-15.453s-6.914-15.453-15.442-15.453h-269.03c-8.528 0-15.442 6.919-15.442 15.453z"/><path d="m152.874 363.819h206.252c8.528 0 15.442-6.919 15.442-15.453s-6.914-15.453-15.442-15.453h-206.252c-8.528 0-15.442 6.919-15.442 15.453s6.914 15.453 15.442 15.453z"/></g><path d="m454.497 0c2.387 0 4.246 2.069 3.977 4.442-2.566 22.685-7.519 51.077-16.989 81.372-23.059 73.813-64.35 131.719-120.846 170.248-29.342 20.026-49.979 26.794-64.639 33.821-60.418 29.02-102.728 80.426-125.891 153.003-7.664 24.006-11.99 46.835-14.421 65.636-.258 1.993-1.954 3.479-3.963 3.479h-54.187c-2.388 0-4.247-2.072-3.977-4.445 2.587-22.693 7.568-51.086 17.057-81.39 23.08-73.72 64.34-131.575 120.743-170.104 29.318-20.058 50.124-26.91 64.639-33.862 60.5-28.999 102.851-80.416 125.983-153.064 7.644-24.024 11.951-46.862 14.371-65.654.257-1.995 1.953-3.482 3.963-3.482z" fill="#484a5d"/><path d="m428.071 0c-2.409 23.365-7.371 53.508-17.47 85.814-23.059 73.813-64.35 131.719-120.846 170.248-29.342 20.026-49.979 26.794-64.639 33.821-60.418 29.02-102.728 80.426-125.891 153.003-8.142 25.506-12.517 49.685-14.854 69.114h27.354c2.009 0 3.705-1.486 3.963-3.479 2.431-18.801 6.757-41.63 14.421-65.636 23.163-72.576 65.473-123.982 125.891-153.002 14.691-7.042 35.308-13.803 64.639-33.821 56.496-38.529 97.787-96.435 120.846-170.248 9.47-30.295 14.423-58.688 16.989-81.372.269-2.373-1.59-4.442-3.977-4.442z" fill="#3d4053"/><g><path d="m454.462 512h-54.188c-2.009 0-3.705-1.486-3.963-3.479-2.431-18.792-6.757-41.621-14.42-65.636-23.163-72.576-65.473-123.982-125.891-153.002-14.691-7.042-35.308-13.803-64.639-33.821-56.496-38.529-97.787-96.435-120.846-170.248-9.47-30.295-14.423-58.688-16.989-81.372-.269-2.373 1.59-4.442 3.977-4.442h54.18c2.01 0 3.707 1.487 3.963 3.481 2.42 18.793 6.727 41.631 14.371 65.654 23.132 72.649 65.483 124.065 125.983 153.065 14.464 6.928 35.357 13.829 64.639 33.862 56.403 38.529 97.663 96.384 120.743 170.104 9.489 30.304 14.47 58.697 17.057 81.39.271 2.372-1.588 4.444-3.977 4.444z" fill="#484a5d"/></g><path d="m441.382 426.165c-23.08-73.72-64.34-131.575-120.743-170.104-29.282-20.032-50.176-26.934-64.639-33.861-60.5-29-102.851-80.416-125.983-153.065-7.644-24.024-11.951-46.862-14.371-65.654-.257-1.994-1.953-3.481-3.963-3.481h-27.353c2.327 19.419 6.681 43.608 14.804 69.135 23.131 72.649 65.482 124.065 125.983 153.065 14.463 6.928 35.357 13.829 64.639 33.862 56.403 38.529 97.663 96.384 120.743 170.104 10.119 32.316 15.112 62.46 17.542 85.835h26.422c2.388 0 4.247-2.072 3.977-4.445-2.588-22.694-7.569-51.087-17.058-81.391z" fill="#3d4053"/></g></svg>