<svg id="Layer_1" enable-background="new 0 0 512 512" height="512" viewBox="0 0 512 512" width="512" xmlns="http://www.w3.org/2000/svg"><g><path d="m378.806 0c48.642 0 88.194 65.523 88.194 126.97v96.9c0 119.42-58.015 148.889-58.015 250.917v1.075c0 19.962-13.63 36.139-30.449 36.139h-31.03c-16.809 0-30.449-16.177-30.449-36.139 0-28.155-21.799-67.961-60.594-67.961-38.327 0-61.519 39.416-61.519 67.961 0 19.962-13.64 36.139-30.449 36.139h-31.03c-16.819 0-30.449-16.177-30.449-36.139v-1.075c-.001-102.028-58.016-131.498-58.016-250.917 0-42.189 0-96.9 0-96.9 0-61.447 39.552-126.97 88.194-126.97 93.531 0 53.807 20.039 122.806 20.039 68.698 0 29.275-20.039 122.806-20.039z" fill="#ffe4c4"/><g fill="#fdd9b1"><path d="m225.585 407.9c-38.327 0-61.519 39.416-61.519 67.961 0 19.962-13.64 36.139-30.449 36.139h30.878c16.809 0 30.449-16.177 30.449-36.139 0-24.478 17.066-56.926 46.093-65.682-4.804-1.454-9.951-2.279-15.452-2.279z"/><path d="m378.806 0c-8.974 0-16.714.186-23.454.519 45.178 6.217 80.769 68.163 80.769 126.45v96.9c0 119.42-58.015 148.889-58.015 250.917v1.075c0 19.962-13.63 36.139-30.449 36.139h30.878c16.819 0 30.449-16.177 30.449-36.139v-1.075c.001-102.027 58.016-131.497 58.016-250.916 0-42.189 0-96.9 0-96.9 0-61.447-39.552-126.97-88.194-126.97z"/></g><path d="m331.53 47.375c-1.999-3.627-6.562-4.949-10.188-2.949-.245.134-24.952 13.491-65.342 13.491-20.934 0-37.575-3.664-47.848-6.738-11.165-3.34-17.448-6.729-17.51-6.763-3.627-1.986-8.176-.665-10.172 2.958-1.999 3.628-.678 8.189 2.949 10.188 1.138.627 28.373 15.354 72.581 15.354 44.207 0 71.442-14.727 72.58-15.354 3.628-1.998 4.948-6.56 2.95-10.187z" fill="#f2ca9c"/></g></svg>