<svg height="512pt" viewBox="0 -8 512 512" width="512pt" xmlns="http://www.w3.org/2000/svg"><path d="m340.699219 375.640625c-19.191407 10.011719-41.03125 15.6875-64.1875 15.6875h-41.015625c-23.160156 0-45-5.679687-64.191406-15.6875-25.660157 22.910156-41.816407 56.042969-41.816407 92.839844v20.070312c0 3.800781 3.117188 6.882813 6.957031 6.882813h239.105469c3.84375 0 6.957031-3.082032 6.957031-6.882813v-20.070312c0-36.796875-16.152343-69.929688-41.808593-92.839844zm0 0" fill="#fcdb67"/><path d="m161.222656 488.550781v-20.070312c0-23.640625 6.675782-45.761719 18.246094-64.636719-5.296875-6.871094-8.457031-15.476562-8.457031-24.820312 0-1.09375.054687-2.171876.140625-3.246094-25.570313 22.90625-41.660156 55.980468-41.660156 92.703125v20.070312c0 3.800781 3.113281 6.882813 6.957031 6.882813h31.730469c-3.839844 0-6.957032-3.082032-6.957032-6.882813zm0 0" fill="#e2c55c"/><g fill="#ffc502"><path d="m256 414.507812c-2.578125 0-5.085938-.292968-7.5-.832031v81.757813h15v-81.757813c-2.414062.539063-4.921875.832031-7.5.832031zm0 0"/><path d="m223.503906 390.804688c-18.757812-1.605469-36.457031-6.933594-52.335937-15.238282-.097657 1.140625-.15625 2.292969-.15625 3.457032 0 22.472656 18.214843 40.691406 40.691406 40.691406 10.242187 0 19.601563-3.785156 26.753906-10.035156-7.070312-4.226563-12.464843-10.925782-14.953125-18.875zm0 0"/><path d="m340.832031 375.570312c-15.878906 8.304688-33.578125 13.628907-52.335937 15.234376-2.488282 7.949218-7.882813 14.648437-14.953125 18.875 7.152343 6.246093 16.511719 10.035156 26.753906 10.035156 22.476563 0 40.691406-18.222656 40.691406-40.691406 0-1.164063-.058593-2.316407-.15625-3.453126zm0 0"/></g><path d="m276.511719 391.328125h-41.015625c-4.40625 0-8.761719-.214844-13.066406-.613281 4.285156 14.328125 17.6875 24.792968 33.570312 24.792968s29.285156-10.460937 33.566406-24.792968c-4.296875.398437-8.652344.613281-13.054687.613281zm0 0" fill="#ffc987"/><path d="m97.328125 254.546875v-56.074219c0-.09375.003906-.183594.003906-.277344h-12.214843c-17.941407 0-32.617188 14.53125-32.617188 32.292969v27c0 17.765625 14.675781 32.296875 32.617188 32.296875h16.871093c-3.035156-11.25-4.660156-23.058594-4.660156-35.238281zm0 0" fill="#ffc987"/><path d="m426.882812 198.195312h-12.214843c0 .09375.003906.183594.003906.277344v56.070313c0 12.183593-1.625 23.992187-4.660156 35.242187h16.871093c17.941407 0 32.617188-14.535156 32.617188-32.296875v-27c0-17.761719-14.675781-32.292969-32.617188-32.292969zm0 0" fill="#ffc987"/><path d="m335.753906 89.800781-1.453125-.730469v5.875c0 1.421876-.707031 2.75-1.898437 3.550782-.714844.480468-1.550782.734375-2.417969.734375-.5625 0-1.101563-.105469-1.605469-.308594l-52.953125-21.117187-.46875.5c-4.871093 5.246093-11.78125 8.253906-18.957031 8.253906s-14.085938-3.007813-18.960938-8.253906l-.464843-.5-52.945313 21.117187c-.511718.203125-1.050781.308594-1.613281.308594-.867187 0-1.703125-.253907-2.417969-.734375-1.191406-.800782-1.898437-2.125-1.898437-3.550782v-5.875l-1.453125.730469c-44.730469 22.53125-74.265625 64.863281-79.917969 113.007813v51.738281c0 76.097656 62.304687 137.78125 139.167969 137.78125h41.015625c76.855469 0 139.160156-61.6875 139.160156-137.78125 0 0 0-38.675781 0-51.816406-5.675781-48.113281-35.210937-90.410157-79.917969-112.929688zm0 0" fill="#ffd5b3"/><path d="m128.257812 254.546875s0-54.09375 0-56.074219c0-30.332031 9.5-58.480468 25.726563-81.753906-1.589844-2.777344-2.875-5.75-3.8125-8.875-32.875 26.589844-53.84375 66.835938-53.84375 111.902344v34.800781c0 76.097656 62.304687 137.78125 139.167969 137.78125h31.925781c-76.859375 0-139.164063-61.683594-139.164063-137.78125zm0 0" fill="#e5bfa1"/><path d="m335.753906 89.800781-1.453125-.730469v5.875c0 1.421876-.707031 2.75-1.898437 3.550782-.714844.480468-1.550782.734375-2.417969.734375-.5625 0-1.101563-.105469-1.605469-.308594l-52.953125-21.117187-.46875.5c-4.871093 5.246093-11.78125 8.253906-18.957031 8.253906s-14.085938-3.007813-18.960938-8.253906l-.464843-.5-52.945313 21.117187c-.511718.203125-1.050781.308594-1.613281.308594-.867187 0-1.703125-.253907-2.417969-.734375-1.191406-.800782-1.898437-2.125-1.898437-3.550782v-5.875l-1.453125.730469c-9.515625 4.792969-18.335938 10.488281-26.394532 16.941407 4.910157 18.136718 21.5 31.484374 41.226563 31.484374 12.996094 0 24.628906-5.800781 32.460937-14.941406 7.832032 9.140625 19.464844 14.941406 32.460938 14.941406s24.628906-5.800781 32.460938-14.941406c7.832031 9.140625 19.464843 14.941406 32.460937 14.941406 19.726563 0 36.316406-13.347656 41.226563-31.484374-8.054688-6.453126-16.878907-12.148438-26.394532-16.941407zm0 0" fill="#f7931e"/><path d="m177.695312 56.214844c-48.257812 23.855468-81.367187 72.902344-81.367187 129.542968v33.988282c0-56.640625 33.109375-105.6875 81.367187-129.542969zm0 0" fill="#fb8276"/><path d="m334.304688 56.214844v33.988281c48.257812 23.855469 81.367187 72.902344 81.367187 129.542969 0-15.207032 0-32.871094 0-33.988282 0-56.640624-33.109375-105.6875-81.367187-129.542968zm0 0" fill="#fb8276"/><path d="m265.058594 217.847656h-12.964844c-6.972656 0-12.648438-5.675781-12.648438-12.652344v-14.144531c0-4.144531 3.355469-7.5 7.5-7.5 4.140626 0 7.5 3.355469 7.5 7.5v11.796875h10.613282c4.140625 0 7.5 3.355469 7.5 7.5 0 4.140625-3.359375 7.5-7.5 7.5zm0 0" fill="#775436"/><path d="m256 238.835938c-35.417969-1.484376-64.4375 28.71875-64.1875 69.519531.007812 5.035156 3.941406 7.40625 8.882812 5.644531 35.804688-12.480469 74.808594-12.480469 110.609376 0 4.941406 1.761719 8.878906-.609375 8.882812-5.644531.25-40.800781-28.769531-71.003907-64.1875-69.519531zm0 0" fill="#fb8276"/><path d="m271.808594 240.328125c-5.0625-1.191406-10.359375-1.722656-15.808594-1.492187-35.417969-1.484376-64.4375 28.71875-64.1875 69.519531.007812 5.035156 3.941406 7.40625 8.882812 5.644531 7.460938-2.601562 15.0625-4.652344 22.746094-6.167969 0-34.269531 20.667969-60.964843 48.367188-67.503906zm0 0" fill="#e1756a"/><path d="m230.195312 60.914062c0-7.152343 2.96875-13.628906 7.742188-18.285156l-53.941406-21.519531c-.640625-.253906-1.3125-.378906-1.980469-.378906-1.046875 0-2.085937.308593-2.980469.90625-1.460937.980469-2.339844 2.625-2.339844 4.378906v68.929687c0 1.757813.878907 3.398438 2.339844 4.378907.894532.601562 1.933594.90625 2.980469.90625.671875 0 1.339844-.121094 1.980469-.378907l53.328125-21.269531c-4.414063-4.601562-7.128907-10.824219-7.128907-17.667969zm0 0" fill="#ef5050"/><path d="m332.960938 21.636719c-.890626-.601563-1.929688-.90625-2.976563-.90625-.667969 0-1.34375.125-1.980469.378906l-53.941406 21.519531c4.773438 4.65625 7.738281 11.132813 7.738281 18.285156 0 6.84375-2.714843 13.066407-7.125 17.667969l53.328125 21.269531c.636719.257813 1.3125.378907 1.980469.378907 1.046875 0 2.085937-.304688 2.976563-.902344 1.464843-.984375 2.34375-2.625 2.34375-4.382813v-68.929687c0-1.753906-.878907-3.394531-2.34375-4.378906zm0 0" fill="#ef5050"/><path d="m208.613281 30.929688-24.617187-9.816407c-.640625-.253906-1.3125-.382812-1.980469-.382812-1.046875 0-2.085937.308593-2.980469.90625-1.460937.984375-2.339844 2.625-2.339844 4.378906v68.929687c0 1.757813.878907 3.398438 2.339844 4.382813.894532.597656 1.933594.902344 2.980469.902344.671875 0 1.339844-.121094 1.980469-.378907l24.617187-9.816406zm0 0" fill="#d74848"/><path d="m282.800781 60.914062c0-14.714843-12-26.640624-26.800781-26.640624-14.804688 0-26.804688 11.925781-26.804688 26.640624 0 14.71875 12 26.644532 26.804688 26.644532 14.800781 0 26.800781-11.925782 26.800781-26.644532zm0 0" fill="#fb8276"/><path d="m250.8125 60.914062c0-10.890624 6.578125-20.246093 15.996094-24.378906-3.308594-1.449218-6.960938-2.261718-10.808594-2.261718-14.800781 0-26.804688 11.929687-26.804688 26.640624 0 14.71875 12 26.644532 26.804688 26.644532 3.847656 0 7.503906-.8125 10.808594-2.261719-9.417969-4.132813-15.996094-13.488281-15.996094-24.382813zm0 0" fill="#e1756a"/><path d="m362.988281 212.277344c-2.589843 0-5.109375-1.34375-6.5-3.746094-9.996093-17.277344-32.214843-23.21875-49.53125-13.242188-3.589843 2.070313-8.175781.839844-10.242187-2.75-2.070313-3.589843-.835938-8.175781 2.753906-10.246093 24.46875-14.101563 55.875-5.699219 70.003906 18.730469 2.074219 3.585937.847656 8.171874-2.738281 10.246093-1.179687.683594-2.472656 1.007813-3.746094 1.007813zm0 0" fill="#775436"/><path d="m149.011719 212.277344c-1.273438 0-2.566407-.324219-3.75-1.007813-3.582031-2.074219-4.808594-6.664062-2.734375-10.25 14.128906-24.425781 45.535156-32.828125 70.003906-18.726562 3.589844 2.066406 4.824219 6.652343 2.753906 10.242187-2.066406 3.589844-6.652344 4.820313-10.242187 2.753906-17.3125-9.976562-39.535157-4.035156-49.53125 13.242188-1.390625 2.40625-3.910157 3.746094-6.5 3.746094zm0 0" fill="#775436"/><path d="m512 133.167969c0 10.824219-8.757812 19.636719-19.523438 19.636719-3.566406 0-7.054687-.980469-10.09375-2.824219l-27.96875-15.292969c-.554687-.300781-.898437-.886719-.898437-1.519531 0-.632813.34375-1.21875.898437-1.519531l27.96875-15.292969c3.039063-1.84375 6.527344-2.820313 10.09375-2.820313 10.765626-.003906 19.523438 8.804688 19.523438 19.632813zm0 0" fill="#48e5e1"/><path d="m432.875 5.773438c7.671875 7.65625 7.71875 20.066406.105469 27.664062-2.519531 2.515625-5.679688 4.289062-9.136719 5.125l-30.609375 8.929688c-.605469.179687-1.265625.007812-1.714844-.4375-.449219-.449219-.617187-1.105469-.441406-1.710938l8.945313-30.554688c.839843-3.449218 2.617187-6.605468 5.136718-9.121093 7.613282-7.597657 20.042969-7.550781 27.714844.105469zm0 0" fill="#a2f9f9"/><path d="m79.125 5.773438c-7.671875 7.65625-7.71875 20.066406-.105469 27.664062 2.519531 2.515625 5.679688 4.289062 9.136719 5.125l30.609375 8.929688c.605469.179687 1.265625.007812 1.714844-.4375.449219-.449219.617187-1.105469.441406-1.710938l-8.945313-30.554688c-.839843-3.449218-2.613281-6.605468-5.136718-9.121093-7.613282-7.597657-20.042969-7.550781-27.714844.105469zm0 0" fill="#48e5e1"/><path d="m0 133.164062c0 10.828126 8.757812 19.640626 19.519531 19.636719 3.566407 0 7.058594-.976562 10.09375-2.824219l27.972657-15.289062c.554687-.300781.898437-.886719.898437-1.519531 0-.632813-.34375-1.21875-.898437-1.519531l-27.972657-15.289063c-3.035156-1.851563-6.523437-2.828125-10.09375-2.828125-10.761719-.003906-19.519531 8.808594-19.519531 19.632812zm0 0" fill="#a2f9f9"/><path d="m362.253906 294.347656c-10.847656 0-19.667968-8.742187-19.667968-19.484375 0-3.5625.976562-7.046875 2.828124-10.078125l15.320313-27.914062c.304687-.554688.886719-.898438 1.523437-.898438.632813 0 1.21875.34375 1.523438.898438l15.320312 27.914062c1.851563 3.03125 2.828126 6.515625 2.828126 10.078125 0 10.742188-8.824219 19.484375-19.675782 19.484375zm0 0" fill="#a2f9f9"/><path d="m149.742188 294.347656c-10.847657 0-19.671876-8.742187-19.671876-19.484375 0-3.5625.980469-7.046875 2.832032-10.078125l15.320312-27.914062c.300782-.554688.886719-.898438 1.523438-.898438.632812 0 1.21875.34375 1.519531.898438l15.320313 27.914062c1.851562 3.03125 2.832031 6.515625 2.832031 10.078125-.003907 10.742188-8.824219 19.484375-19.675781 19.484375zm0 0" fill="#a2f9f9"/></svg>