<svg id="flat" height="512" viewBox="0 0 512 512" width="512" xmlns="http://www.w3.org/2000/svg"><path d="m88 360h352v96h-352z" fill="#c38325"/><circle cx="200" cy="328" fill="#fdc9a6" r="32"/><path d="m232 328a32 32 0 0 1 -32 32v-10a14 14 0 0 1 14-14h10v-23.55a16.865 16.865 0 0 1 .7-4.79 31.8 31.8 0 0 1 7.3 20.34z" fill="#fdc9a6"/><path d="m216 292a20 20 0 0 1 -20 20h-20v17.027a30.973 30.973 0 0 1 -30.973 30.973h-33.027a24 24 0 0 1 -24-24 24 24 0 0 1 24-24h21.927a10.073 10.073 0 0 0 10.073-10.073 29.927 29.927 0 0 1 29.926-29.927h22.074a20 20 0 0 1 20 20z" fill="#744630"/><path d="m232 328a32 32 0 0 1 -32 32v-10a14 14 0 0 1 14-14h10v-23.55a16.865 16.865 0 0 1 .7-4.79 31.8 31.8 0 0 1 7.3 20.34z" fill="#f6bb92"/><path d="m72 272a16 16 0 0 1 16 16v200a0 0 0 0 1 0 0h-32a0 0 0 0 1 0 0v-200a16 16 0 0 1 16-16z" fill="#c38325"/><path d="m456 328a16 16 0 0 1 16 16v144a0 0 0 0 1 0 0h-32a0 0 0 0 1 0 0v-144a16 16 0 0 1 16-16z" fill="#c38325"/><path d="m88 360h352v64h-352z" fill="#fbb540"/><g fill="#fd9226"><path d="m392 168h-40a8 8 0 0 1 -6.146-13.122l29.065-34.878h-22.919a8 8 0 0 1 0-16h40a8 8 0 0 1 6.146 13.122l-29.065 34.878h22.919a8 8 0 0 1 0 16z"/><path d="m320 216h-26.667a8 8 0 0 1 -6.146-13.122l15.733-18.878h-9.587a8 8 0 0 1 0-16h26.667a8 8 0 0 1 6.146 13.122l-15.732 18.878h9.586a8 8 0 0 1 0 16z"/><path d="m264 256h-24a8 8 0 0 1 -5.657-13.657l10.343-10.343h-4.686a8 8 0 0 1 0-16h24a8 8 0 0 1 5.657 13.657l-10.343 10.343h4.686a8 8 0 0 1 0 16z"/></g><circle cx="256" cy="80" fill="#c0f5f9" r="56"/><path d="m272 104a7.976 7.976 0 0 1 -5.657-2.343l-16-16a8 8 0 0 1 -2.343-5.657v-24a8 8 0 0 1 16 0v20.687l13.657 13.656a8 8 0 0 1 -5.657 13.657z" fill="#8aced8"/><path d="m247.227 296.018c-8.606.406-15.227 7.819-15.227 16.434v23.548h-10a14 14 0 0 0 -14 14v10h34a22 22 0 0 0 22-22v-26a16 16 0 0 0 -16.773-15.982z" fill="#fdc9a6"/><path d="m88 424h352v16h-352z" fill="#ac7421"/><path d="m256 360v36a4 4 0 0 0 4 4h172v24h8v-64z" fill="#ea9d2d"/><path d="m440 392h-172a4 4 0 0 1 -4-4v-100h134.181a41.819 41.819 0 0 1 41.819 41.819z" fill="#eaeae8"/><path d="m360 288h32v104h-32z" fill="#04957c"/><path d="m320 288h16v104h-16z" fill="#04957c"/></svg>