<svg id="Capa_1" enable-background="new 0 0 512 512" height="512" viewBox="0 0 512 512" width="512" xmlns="http://www.w3.org/2000/svg"><g><g><path d="m427.234 120.571c-4.206 0-7.615-3.408-7.615-7.611v-27.445c0-8.972 7.306-16.271 16.286-16.271h27.48c4.206 0 7.615 3.408 7.615 7.611s-3.409 7.611-7.615 7.611h-27.48c-.542 0-1.055.509-1.055 1.048v27.445c0 4.205-3.41 7.612-7.616 7.612zm-33.212 0c-4.206 0-7.615-3.408-7.615-7.611v-27.445c0-.558-.493-1.048-1.055-1.048h-27.451c-4.206 0-7.615-3.408-7.615-7.611s3.409-7.611 7.615-7.611h27.451c8.979 0 16.285 7.299 16.285 16.271v27.445c.001 4.203-3.409 7.61-7.615 7.61zm69.363-69.273h-27.48c-8.98 0-16.286-7.299-16.286-16.271v-27.416c0-4.204 3.409-7.611 7.615-7.611s7.615 3.408 7.615 7.611v27.416c0 .558.493 1.048 1.055 1.048h27.48c4.206 0 7.615 3.408 7.615 7.611s-3.408 7.612-7.614 7.612zm-78.033 0h-27.451c-4.206 0-7.615-3.408-7.615-7.611s3.409-7.611 7.615-7.611h27.451c.572 0 1.055-.48 1.055-1.048v-27.417c0-4.204 3.409-7.611 7.615-7.611s7.615 3.408 7.615 7.611v27.416c.001 8.972-7.305 16.271-16.285 16.271z" fill="#6d80aa"/></g><g><path clip-rule="evenodd" d="m85.463 170.15v11.392c0 14.557 16.332 29.401 30.764 29.199l18.32-23.331-20.452-28.797h-17.11c-6.337.001-11.522 5.18-11.522 11.537z" fill="#ffbc85" fill-rule="evenodd"/></g><g><path clip-rule="evenodd" d="m341.079 158.614-21.575 21.921 19.443 30.206c14.431.201 30.764-14.643 30.764-29.199v-11.392c0-6.358-5.185-11.536-11.522-11.536z" fill="#ffbc85" fill-rule="evenodd"/></g><g><path clip-rule="evenodd" d="m128.008 512h84.226 114.903 77.946c7.489 0 9.851-2.043 8.872-9.752l-12.674-97.869c-7.95-61.535-59.972-71.46-102.258-82.967-1.239-.345-2.391-.777-3.457-1.295h-135.96c-1.095.518-2.247.949-3.457 1.295-42.286 11.507-94.308 21.432-102.286 82.967l-12.645 97.869c-1.008 7.71 1.383 9.752 8.872 9.752z" fill="#22a6fe" fill-rule="evenodd"/></g><g><path clip-rule="evenodd" d="m114.096 193.28c0 5.667.72 11.536 2.132 17.462 7.115 30.12 31.196 62.34 61.815 81.212 6.74 4.171 13.826 7.681 21.114 10.385 10.283 3.797 19.357 5.696 28.431 5.696s18.147-1.899 28.431-5.696c7.288-2.704 14.345-6.214 21.114-10.385 30.62-18.872 54.701-51.092 61.815-81.212 1.383-5.926 2.132-11.795 2.132-17.462v-34.665c-173.233-91.252-51.907-94.014-226.983 0v34.665z" fill="#ffe5c1" fill-rule="evenodd"/></g><g><path clip-rule="evenodd" d="m159.608 320.118 51.186 30.321c12.991 7.595 20.596 7.595 33.587 0l51.186-30.321c-12.098-5.84-15.641-22.468-18.435-28.164-6.769 4.171-13.826 7.681-21.114 10.385-10.283 3.797-19.357 5.696-28.431 5.696s-18.147-1.899-28.431-5.696c-7.288-2.704-14.374-6.214-21.114-10.385-2.793 5.696-6.365 22.324-18.434 28.164z" fill="#fed1a3" fill-rule="evenodd"/></g><g><path clip-rule="evenodd" d="m227.587 30.827c-56.746.949-113.492 43.612-113.492 127.787 45.944-3.193 39.088-38.233 70.803-30.062 24.513 6.3 33.587 9.465 42.689 9.465s18.176-3.164 42.689-9.465c31.714-8.17 24.859 26.869 70.803 30.062 0-67.259-41.508-126.607-113.492-127.787z" fill="#6d80aa" fill-rule="evenodd"/></g><g><path clip-rule="evenodd" d="m249.911 325.612c5.07-2.56 3.197-3.797 9.16-.029 3.197 2.043 7.979 4.718 13.826 7.94l22.67-13.406c-12.098-5.84-15.641-22.468-18.435-28.164-6.769 4.171-13.826 7.681-21.114 10.385-10.283 3.797-19.357 5.696-28.431 5.696s-18.147-1.899-28.431-5.696c-7.288-2.704-14.374-6.214-21.114-10.385-1.555 3.164-3.341 9.637-6.654 15.822 21.403 14.472 47.932 33.315 78.523 17.837z" fill="#ffbc85" fill-rule="evenodd"/></g><g><path clip-rule="evenodd" d="m312.101 159.736v34.694c0 5.639-.749 11.507-2.16 17.433-7.086 30.12-31.167 62.34-61.787 81.212-6.769 4.171-13.855 7.681-21.143 10.385-3.889 1.438-7.633 2.618-11.263 3.51 4.004.719 7.921 1.064 11.839 1.064 9.074 0 18.147-1.899 28.431-5.696 7.288-2.704 14.345-6.214 21.114-10.385 30.62-18.872 54.701-51.092 61.815-81.212 1.383-5.926 2.132-11.795 2.132-17.462v-34.665c-13.596-.949-22.554-4.689-29.295-9.263.202 3.395.317 6.876.317 10.385z" fill="#fed1a3" fill-rule="evenodd"/></g><g><path clip-rule="evenodd" d="m378.641 417.814 12.184 94.186h14.258c7.489 0 9.851-2.043 8.872-9.752l-12.674-97.869c-7.95-61.535-59.972-71.46-102.258-82.967-1.239-.345-2.391-.777-3.457-1.295l-22.67 13.406c34.481 15.276 97.218 18.326 105.745 84.291z" fill="#0182fc" fill-rule="evenodd"/></g><g><path d="m120.39 512v-75.597c0-4.212 3.412-7.612 7.615-7.612 4.214 0 7.615 3.4 7.615 7.612v75.597zm199.13 0v-75.597c0-4.212 3.412-7.612 7.615-7.612 4.204 0 7.615 3.4 7.615 7.612v75.597z" fill="#0182fc"/></g><g><path clip-rule="evenodd" d="m341.079 158.614c0-67.259-41.508-126.608-113.492-127.787-9.016.144-18.032 1.352-26.817 3.596 56.4 1.899 109.805 63.663 111.014 114.928 6.741 4.574 15.699 8.314 29.295 9.263z" fill="#49679b" fill-rule="evenodd"/></g><g><path d="m182.882 223.388c-4.206 0-7.615-3.408-7.615-7.611v-9.407c0-4.204 3.409-7.611 7.615-7.611s7.615 3.408 7.615 7.611v9.407c0 4.203-3.409 7.611-7.615 7.611z" fill="#6d80aa"/></g><g><path d="m270.766 223.388c-4.206 0-7.615-3.408-7.615-7.611v-9.407c0-4.204 3.409-7.611 7.615-7.611s7.615 3.408 7.615 7.611v9.407c0 4.203-3.409 7.611-7.615 7.611z" fill="#6d80aa"/></g><g><path d="m204.568 194.421c-1.01 0-2.037-.202-3.023-.629l-27.71-11.997c-3.859-1.671-5.633-6.153-3.961-10.01s6.152-5.631 10.015-3.959l27.71 11.997c3.859 1.671 5.633 6.153 3.961 10.01-1.244 2.871-4.048 4.588-6.992 4.588z" fill="#6d80aa"/></g><g><path d="m253.113 193.27c-2.944 0-5.747-1.716-6.992-4.588-1.671-3.857.102-8.339 3.961-10.01l27.71-11.997c3.86-1.67 8.342.102 10.015 3.959 1.671 3.857-.102 8.339-3.961 10.01l-27.71 11.997c-.987.427-2.014.629-3.023.629z" fill="#6d80aa"/></g><g><path d="m242.419 265.159c-1.798 0-3.602-.632-5.052-1.919-4.659-4.134-12.511-5.38-17.589-.308-2.975 2.972-7.796 2.97-10.769-.004s-2.971-7.793.004-10.764c10.24-10.228 27.136-10.362 38.465-.308 3.145 2.791 3.432 7.602.64 10.745-1.506 1.694-3.598 2.558-5.699 2.558z" fill="#6d80aa"/></g></g></svg>