<svg id="Capa_1" enable-background="new 0 0 512 512" height="512" viewBox="0 0 512 512" width="512" xmlns="http://www.w3.org/2000/svg"><g><g><path clip-rule="evenodd" d="m146.735 306.893 65.874 69.013 65.904-69.013c-1.306-.98-1.039-2.733-1.039-7.397v-34.521l-129.7.267v34.254c0 4.664.237 6.417-1.039 7.397z" fill="#fed1a3" fill-rule="evenodd"/></g><g><path clip-rule="evenodd" d="m255.238 320.619 23.274-13.725c-1.306-.98-1.039-2.733-1.039-7.397v-34.521c-11.221 9.477-23.838 17.201-37.167 22.162-10.064 3.743-18.97 5.615-27.846 5.615-8.906 0-17.782-1.872-27.876-5.615-13.181-4.902-25.679-12.537-36.811-21.895v27.272c30.161 16.369 66.527 32.026 100.459 9.18 8.579-5.793 7.006-.386 7.006 11.616z" fill="#ffbc85" fill-rule="evenodd"/></g><g><path clip-rule="evenodd" d="m70.262 147.835v11.735c0 15.003 16.802 30.273 31.646 30.095l23.927-26.856-24.61-26.856h-19.118c-6.501-.002-11.845 5.346-11.845 11.882z" fill="#ffbc85" fill-rule="evenodd"/></g><g><path clip-rule="evenodd" d="m184.585 287.137c10.093 3.743 18.97 5.615 27.876 5.615 8.876 0 17.782-1.872 27.846-5.615 42.273-15.686 77.422-59.446 82.706-97.473.445-3.268.683-6.476.683-9.626v-44.087h-20.454c-43.312 0-52.337-53.386-105.298-53.386h-35.178c-40.522 0-9.678 61.526-56.315 61.526h-5.225v35.947c0 3.149.208 6.358.683 9.626 5.283 38.027 40.432 81.787 82.676 97.473z" fill="#ffe5c1" fill-rule="evenodd"/></g><g><path clip-rule="evenodd" d="m106.45 154.133c46.637 0 15.793-61.526 56.315-61.526h35.178c52.961 0 61.985 53.386 105.298 53.386h20.454v-52.881c0-81.698-131.511-122.428-172.686-68.953-53.732 4.753-49.784 76.321-49.784 85.768v26.025 18.181z" fill="#6d80aa" fill-rule="evenodd"/></g><g><path clip-rule="evenodd" d="m300.005 162.808c0 3.149 23.452 23.588 23.007 26.856 14.814.178 31.646-15.092 31.646-30.095v-11.735c0-6.536-5.344-11.883-11.875-11.883h-19.088z" fill="#ffbc85" fill-rule="evenodd"/></g><g><path clip-rule="evenodd" d="m287.745 90.587v52.881c4.69 1.604 9.797 2.525 15.496 2.525h20.454v-10.041-42.84c0-59.714-70.297-97.562-124.178-92.69 44.767 9.774 88.228 43.196 88.228 90.165z" fill="#49679b" fill-rule="evenodd"/></g><g><path clip-rule="evenodd" d="m287.062 187.109c-5.284 38.027-40.463 81.817-82.706 97.503-5.165 1.901-10.034 3.327-14.724 4.278 8.075 2.555 15.437 3.862 22.829 3.862 8.876 0 17.782-1.872 27.846-5.615 13.329-4.961 25.946-12.685 37.167-22.162 24.313-20.558 41.917-49.286 45.539-75.311.445-3.268.683-6.476.683-9.626v-34.046h-20.454c-5.7 0-10.806-.921-15.496-2.525v34.046c-.001 3.149-.239 6.358-.684 9.596z" fill="#fed1a3" fill-rule="evenodd"/></g><g><path clip-rule="evenodd" d="m221.099 402.079 20.87 57.753c.95 2.614.92 4.278-.534 6.774l-19.088 32.471h100.785 87.011c8.342 0 10.954-2.02 9.856-9.655l-14.071-96.82c-7.986-54.99-61.095-69.518-105.921-80.213-30.755 6.15-56.315 34.313-60.234 55.317z" fill="#f8f2f0" fill-rule="evenodd"/></g><g><path clip-rule="evenodd" d="m109.449 499.082h93.422l-19.055-32.471c-1.493-2.503-1.493-4.162-.535-6.779l20.867-57.752-18.674-34.377-60.233-55.31c-44.853 10.693-97.931 25.219-105.92 80.21l-14.073 96.815c-1.132 7.634 1.513 9.663 9.852 9.663h78.907 15.442z" fill="#f8f2f0" fill-rule="evenodd"/></g><g><path clip-rule="evenodd" d="m173.244 459.832c-.95 2.614-.95 4.278.534 6.774l19.059 32.471h39.542l19.088-32.471c1.455-2.496 1.484-4.159.534-6.774l-20.87-57.753-17.337-8.229-19.682 8.229z" fill="#8ac9fe" fill-rule="evenodd"/></g><g><path clip-rule="evenodd" d="m290.803 334.195c38.563 10.814 76.769 28.52 83.448 74.509l13.151 90.373h22.74c8.342 0 10.954-2.02 9.856-9.655l-14.071-96.82c-7.986-54.99-61.095-69.518-105.921-80.213z" fill="#eee1dc" fill-rule="evenodd"/></g><g><path clip-rule="evenodd" d="m175.441 367.706 18.673 34.373h37.019l18.673-34.373-9.144-18.924-28.053-3-29.568 4.456z" fill="#22a6fe" fill-rule="evenodd"/></g><g><path clip-rule="evenodd" d="m230.005 459.862c.95 2.614.92 4.278-.534 6.803l-18.791 32.412h5.789 15.912l19.088-32.471c1.455-2.496 1.484-4.159.534-6.774l-20.87-57.753h-21.909z" fill="#22a6fe" fill-rule="evenodd"/></g><g><path clip-rule="evenodd" d="m224.721 377.926-12.112 24.153h18.524l18.673-34.373-8.698-5.11-10.093-5.971-18.406-10.844-16.535 9.744 27.935 16.785c3.205 1.873 2.404 2.467.712 5.616z" fill="#0182fc" fill-rule="evenodd"/></g><g><path clip-rule="evenodd" d="m125.242 312.389 22.384 53.029c4.275 10.131 11.311 11.081 20.573 6.566l7.243-4.278 37.167-21.925-65.874-38.888c-1.098.802-3.236 1.099-7.451 2.139-4.543 1.1-9.233 2.199-14.042 3.357z" fill="#eee1dc" fill-rule="evenodd"/></g><g><path clip-rule="evenodd" d="m212.609 345.782 37.197 21.925 7.214 4.278c9.292 4.516 16.328 3.565 20.602-6.566l22.384-53.029c-4.809-1.159-9.529-2.258-14.071-3.357-4.215-1.04-6.353-1.337-7.422-2.139z" fill="#eee1dc" fill-rule="evenodd"/></g><g><path clip-rule="evenodd" d="m254.288 325.134c11.489 2.793 24.016 5.555 36.514 9.061l9.203-21.806c-4.809-1.159-9.529-2.258-14.071-3.357-4.215-1.04-6.353-1.337-7.422-2.139l-29.004 17.112c1.188.297 2.732.624 4.78 1.129z" fill="#cdbeb9" fill-rule="evenodd"/></g><g><path d="m212.984 256.964c-.009 0-.018 0-.028 0-7.305-.007-14.168-2.864-19.325-8.045-3.009-3.023-2.999-7.915.022-10.927 3.02-3.012 7.909-3.002 10.919.021 2.241 2.253 5.225 3.495 8.4 3.498h.012c3.185 0 6.184-1.245 8.445-3.508 3.016-3.018 7.903-3.017 10.919-.001 3.015 3.017 3.015 7.909.001 10.927-5.179 5.182-12.055 8.035-19.365 8.035z" fill="#6d80aa"/></g><g><path d="m315.41 499.082v-74.812c0-4.265 3.459-7.726 7.721-7.726s7.721 3.461 7.721 7.726v74.812zm-221.403 0v-74.812c0-4.265 3.459-7.726 7.721-7.726s7.721 3.461 7.721 7.726v74.812z" fill="#eee1dc"/></g><g><path d="m185.77 171.636c-.928 0-1.872-.169-2.79-.525-9.258-3.592-16.063-3.828-23.488-.816-3.952 1.604-8.454-.303-10.056-4.257-1.602-3.955.302-8.46 4.254-10.063 14.46-5.866 26.829-2.393 34.875.729 3.976 1.542 5.948 6.018 4.407 9.997-1.188 3.061-4.108 4.935-7.202 4.935z" fill="#6d80aa"/></g><g><path d="m172.948 202.293c-4.264 0-7.721-3.459-7.721-7.726v-5.853c0-4.268 3.457-7.726 7.721-7.726s7.721 3.459 7.721 7.726v5.853c0 4.267-3.457 7.726-7.721 7.726z" fill="#6d80aa"/></g><g><path d="m234.935 171.636c-3.094 0-6.014-1.874-7.201-4.935-1.542-3.979.431-8.455 4.407-9.997 8.716-3.382 20.556-6.523 34.868-.732 3.953 1.6 5.862 6.104 4.264 10.059-1.598 3.957-6.099 5.863-10.052 4.267-7.441-3.01-14.248-2.776-23.496.813-.918.356-1.862.525-2.79.525z" fill="#6d80aa"/></g><g><path d="m247.757 202.293c-4.264 0-7.721-3.459-7.721-7.726v-5.853c0-4.268 3.457-7.726 7.721-7.726s7.721 3.459 7.721 7.726v5.853c0 4.267-3.456 7.726-7.721 7.726z" fill="#6d80aa"/></g><g><path clip-rule="evenodd" d="m437.78 347-64.598 98.216c-1.989 3.001-1.366 3.506 1.9 3.506h25.441c2.405 0 4.364 1.961 4.364 4.367v54.545c0 2.406 1.989 4.367 4.394 4.367h30.25 30.25c2.405 0 4.364-1.961 4.364-4.367v-54.545c0-2.406 1.959-4.367 4.364-4.367h25.441c3.295 0 3.889-.505 1.93-3.506l-64.627-98.216c-1.068-1.634-2.404-1.634-3.473 0z" fill="#80d261" fill-rule="evenodd"/></g><g><path clip-rule="evenodd" d="m505.88 445.216-64.627-98.216c-1.069-1.634-2.405-1.634-3.473 0l-2.672 4.1c10.42 21.925 17.159 56.476 17.159 95.334 0 24.212-2.612 46.731-7.095 65.566h24.61c2.405 0 4.364-1.961 4.364-4.367v-54.545c0-2.406 1.959-4.367 4.364-4.367h25.441c3.295 0 3.889-.505 1.929-3.505z" fill="#4fc122" fill-rule="evenodd"/></g><g><path clip-rule="evenodd" d="m444.133 194.507 20.216 28.995 33.783 10.279c3.355 1.04 3.889 2.644 1.781 5.466l-21.315 28.193.683 35.353c.059 3.506-1.336 4.516-4.661 3.357l-33.367-11.557-33.368 11.557c-3.325 1.159-4.72.149-4.661-3.357l.683-35.353-21.315-28.193c-2.108-2.822-1.573-4.427 1.781-5.466l33.813-10.279 20.187-28.995c2.019-2.882 3.741-2.882 5.76 0z" fill="#fdb440" fill-rule="evenodd"/></g><g><path clip-rule="evenodd" d="m498.132 233.781-33.783-10.279-17.04-24.42c3.325 11.259 5.195 23.767 5.195 36.898 0 22.965-5.67 43.939-15.021 59.922l3.77-1.307 33.367 11.557c3.325 1.159 4.72.149 4.661-3.357l-.683-35.353 21.315-28.193c2.108-2.824 1.574-4.428-1.781-5.468z" fill="#fe9900" fill-rule="evenodd"/></g></g></svg>