<svg id="Capa_1" enable-background="new 0 0 512 512" height="512" viewBox="0 0 512 512" width="512" xmlns="http://www.w3.org/2000/svg"><g><g><path clip-rule="evenodd" d="m256 6c-102.216 1.665-204.431 78.627-204.431 230.499h408.863c-.001-151.872-102.216-228.834-204.432-230.499z" fill="#6d80aa" fill-rule="evenodd"/></g><g><path clip-rule="evenodd" d="m460.431 236.499-28.236 40.815 24.372 53.21c25.978.327 55.433-26.426 55.433-52.705v-20.541c0-11.445-9.333-20.779-20.776-20.779z" fill="#ffbc85" fill-rule="evenodd"/></g><g><path clip-rule="evenodd" d="m0 257.278v20.541c0 26.278 29.455 53.032 55.432 52.705l30.941-47.027-34.805-46.998h-30.792c-11.443 0-20.776 9.335-20.776 20.779z" fill="#ffbc85" fill-rule="evenodd"/></g><g><path clip-rule="evenodd" d="m247.945 6.268c86.849 17.004 164.603 89.893 167.813 218.43 11.057 5.916 25.264 10.434 44.673 11.801 0-151.872-102.215-228.834-204.431-230.499-2.675.03-5.38.119-8.055.268z" fill="#49679b" fill-rule="evenodd"/></g><g><path clip-rule="evenodd" d="m179.078 182.249c-57.097-14.715-44.762 48.484-127.51 54.251v62.515c0 10.226 1.338 20.779 3.864 31.51 15.604 66.29 76.803 138.258 149.356 165.19 18.517 6.866 34.865 10.285 51.212 10.285s32.695-3.419 51.212-10.285c72.553-26.932 133.751-98.9 149.356-165.19 2.526-10.731 3.864-21.284 3.864-31.51v-62.515c-82.747-5.767-70.413-68.965-127.51-54.251-44.168 11.356-60.515 17.063-76.922 17.063s-32.754-5.708-76.922-17.063z" fill="#ffe5c1" fill-rule="evenodd"/></g><g><path clip-rule="evenodd" d="m337.796 395.596-78.796-9.263-83.37 9.262c9.6 35.761 42.265 62.128 81.083 62.128s71.483-26.366 81.083-62.127z" fill="#fd4755" fill-rule="evenodd"/></g><g><path clip-rule="evenodd" d="m149.92 264.74-31.833 15.279c-3.537 1.427-3.537 2.17 0 3.597l31.833 15.279 15.277 31.837c1.427 3.537 2.17 3.537 3.596 0l15.277-31.837 31.833-15.279c3.537-1.427 3.537-2.17 0-3.597l-31.833-15.279-15.277-31.837c-1.427-3.537-2.17-3.537-3.596 0z" fill="#fdb440" fill-rule="evenodd"/></g><g><path clip-rule="evenodd" d="m329.355 264.74-31.833 15.279c-3.537 1.427-3.537 2.17 0 3.597l31.833 15.279 15.277 31.837c1.427 3.537 2.17 3.537 3.596 0l15.277-31.837 31.833-15.279c3.537-1.427 3.537-2.17 0-3.597l-31.833-15.279-15.277-31.837c-1.427-3.537-2.17-3.537-3.596 0z" fill="#fdb440" fill-rule="evenodd"/></g><g><path clip-rule="evenodd" d="m300.673 395.596c-8.025 29.905-32.16 53.21-62.506 60.048 5.945 1.367 12.156 2.081 18.547 2.081 38.818 0 71.483-26.367 81.083-62.128h-37.124z" fill="#e41e2b" fill-rule="evenodd"/></g><g><path clip-rule="evenodd" d="m415.848 232.932v62.545c0 10.196-1.338 20.779-3.864 31.48-15.604 66.32-76.803 138.288-149.356 165.19-13.791 5.113-26.364 8.323-38.61 9.631 11.028 2.825 21.52 4.222 31.982 4.222 16.347 0 32.695-3.419 51.212-10.285 72.553-26.932 133.751-98.9 149.356-165.19 2.526-10.731 3.864-21.284 3.864-31.51v-62.515c-19.409-1.367-33.616-5.886-44.673-11.801.059 2.704.089 5.469.089 8.233z" fill="#fed1a3" fill-rule="evenodd"/></g><g><path clip-rule="evenodd" d="m165.346 232.486c4.726 13.555 7.401 29.102 7.401 45.63 0 18.222-3.24 35.285-8.917 49.762l1.367 2.854c1.427 3.537 2.17 3.537 3.596 0l15.277-31.837 31.833-15.279c3.537-1.427 3.537-2.17 0-3.597l-31.833-15.279-15.277-31.837c-1.366-3.389-2.109-3.508-3.447-.417z" fill="#fe9900" fill-rule="evenodd"/></g><g><path clip-rule="evenodd" d="m344.811 232.486c4.696 13.555 7.401 29.102 7.401 45.63 0 18.222-3.269 35.285-8.946 49.762l1.367 2.854c1.427 3.537 2.17 3.537 3.596 0l15.277-31.837 31.833-15.279c3.537-1.427 3.537-2.17 0-3.597l-31.833-15.279-15.277-31.837c-1.367-3.389-2.11-3.508-3.418-.417z" fill="#fe9900" fill-rule="evenodd"/></g><g><path clip-rule="evenodd" d="m330.277 363.372h-147.127c-5.707 0-10.403 4.667-10.403 10.375 0 7.551 1.011 14.863 2.883 21.849h162.166c1.872-6.986 2.853-14.298 2.853-21.849.001-5.708-4.666-10.375-10.372-10.375z" fill="#f8f2f0" fill-rule="evenodd"/></g><g><path clip-rule="evenodd" d="m293.242 363.372c5.677.059 10.314 4.697 10.314 10.375 0 7.551-1.011 14.863-2.883 21.849h37.123c1.872-6.986 2.853-14.298 2.853-21.849 0-5.707-4.666-10.375-10.373-10.375z" fill="#eee1dc" fill-rule="evenodd"/></g></g></svg>