<?xml version="1.0" encoding="iso-8859-1"?>
<!-- Generator: Adobe Illustrator 19.0.0, SVG Export Plug-In . SVG Version: 6.00 Build 0)  -->
<svg version="1.1" id="Layer_1" xmlns="http://www.w3.org/2000/svg" xmlns:xlink="http://www.w3.org/1999/xlink" x="0px" y="0px"
	 viewBox="0 0 512 512" style="enable-background:new 0 0 512 512;" xml:space="preserve">
<path style="fill:#F7CBA4;" d="M387.747,394.58v117.416H124.254V394.58c0-32.971,20.259-61.227,49-72.981
	c4.669-1.907,9.569-3.386,14.642-4.368h136.207c5.073,0.982,9.973,2.462,14.642,4.368
	C367.488,333.353,387.747,361.609,387.747,394.58z"/>
<g>
	<polyline style="fill:#E0B394;" points="176.837,436.878 176.837,392.685 191.283,440.068 	"/>
	<polyline style="fill:#E0B394;" points="335.164,436.878 335.164,392.685 320.718,440.068 	"/>
</g>
<path style="fill:#B09ADC;" d="M335.164,436.878v75.119H176.837v-75.119c24.061-18.687,38.646-46.932,40.044-77.21
	c0.092-1.618,0.127-3.236,0.127-4.854v-37.582h77.996v37.582c0,1.618,0.035,3.236,0.127,4.842
	C296.53,389.935,311.115,418.191,335.164,436.878z"/>
<g>
	<path style="fill:#E0B394;" d="M221.417,317.23h-33.514c-36.265,7.061-63.643,39.015-63.643,77.349V512h33.514V394.579
		C157.774,356.246,185.152,324.291,221.417,317.23z"/>
	<path style="fill:#E0B394;" d="M338.747,321.6l-43.742,31.792c-23.252,16.896-54.744,16.896-78.008,0L173.255,321.6
		c4.669-1.907,9.569-3.386,14.642-4.368h136.207C329.178,318.214,334.078,319.693,338.747,321.6z"/>
</g>
<path style="fill:#8381B5;" d="M295.004,317.231v36.161c-23.252,16.896-54.733,16.896-77.996,0.012v-36.172L295.004,317.231
	L295.004,317.231z"/>
<path style="fill:#F7CBA4;" d="M383.679,248.146c-4.831,10.956-12.354,21.415-18.156,30.833
	c-5.894,9.592-13.672,18.086-23.079,24.916l-47.44,34.474c-23.252,16.896-54.744,16.896-78.008,0l-47.44-34.474
	c-9.361-6.807-17.127-15.266-23.021-24.812c-3.201-5.201-7.304-10.725-11.326-16.468c-8.321-11.938-16.26-24.847-15.001-37.894
	l6.356-85.138c5.663-58.65,70.519-113.244,129.435-113.244c29.458,0,58.812,13.648,81.509,34.624
	c22.697,20.987,38.738,49.301,41.569,78.62l9.245,85.138C389.088,232.636,387.042,240.507,383.679,248.146z"/>
<g>
	<path style="fill:#E0B394;" d="M163.43,241.504c-0.797,13.487,3.594,26.754,12.285,37.097l49.582,60.927
		c2.589,3.086,5.524,5.674,8.702,7.743c-5.963-2.08-11.695-5.062-17-8.91l-47.44-34.462c-25.066-18.213-38.622-48.33-35.641-79.175
		l8.217-85.15c5.617-58.072,53.993-102.52,112.158-103.363c-35.826,0.867-76.393,34.635-78.508,70.6L163.43,241.504z"/>
	<path style="fill:#E0B394;" d="M383.679,248.146c-0.058-1.918-0.185-3.848-0.37-5.778l-8.367-86.629
		c-1.398-14.457-5.397-28.083-11.522-40.448c-8.02,21.599-28.822,36.993-53.207,36.993c-22.512,0-41.951-13.105-51.127-32.116
		c-9.176,19.011-28.626,32.116-51.127,32.116c-9.731,0-18.907-2.462-26.916-6.784v-0.012c-12.054-6.495-21.472-17.231-26.292-30.198
		c-6.125,12.366-10.124,25.991-11.522,40.448l-8.367,86.629c-0.659,6.83-0.532,13.614,0.347,20.247
		c-8.321-11.938-16.26-24.847-15.001-37.894l6.356-85.138c5.663-58.65,70.519-113.244,129.435-113.244
		c29.458,0,58.812,13.648,81.509,34.624c22.697,20.987,38.738,49.301,41.569,78.62l9.245,85.138
		C389.088,232.636,387.042,240.507,383.679,248.146z"/>
</g>
<path style="fill:#666666;" d="M432.31,239.952c-3.744,22.559-22.674,39.963-45.464,41.893c-7.547,0.636-14.793-0.393-21.391-2.774
	c9.893-16.006,14.515-35.028,12.643-54.351l-8.228-85.138c-1.375-14.215-5.305-27.609-11.326-39.755
	c-4.519,12.181-13.186,22.362-24.281,28.811h-0.012c-8.228,4.808-17.797,7.547-28.002,7.547c-22.12,0-41.234-12.886-50.249-31.561
	c-9.014,18.676-28.129,31.561-50.249,31.561c-9.569,0-18.583-2.415-26.453-6.668v-0.012c-11.846-6.379-21.103-16.931-25.841-29.678
	c-6.021,12.146-9.95,25.54-11.326,39.755l-8.228,85.138c-1.872,19.323,2.751,38.345,12.643,54.351
	c-6.599,2.381-13.845,3.409-21.391,2.774c-22.79-1.93-41.72-19.334-45.464-41.893c-2.727-16.399,2.785-31.619,12.77-42.459
	c13.487-14.631,21.357-33.549,21.357-53.438v-1.999c0-66.324,45.545-122.039,107.05-137.675C232.09,1.525,243.854,0,255.966,0h0.069
	c78.447,0.023,142.147,63.62,142.147,142.055v1.999c0,19.889,7.87,38.807,21.357,53.438
	C429.524,208.333,435.037,223.553,432.31,239.952z"/>
<path style="fill:#5E5E5E;" d="M179.298,129.508c-11.846-6.379-21.103-16.931-25.841-29.678c-6.021,12.146-9.95,25.54-11.326,39.755
	l-8.228,85.138c-1.872,19.323,2.751,38.345,12.643,54.351c-6.599,2.381-13.845,3.409-21.391,2.774
	c-22.79-1.93-41.72-19.334-45.464-41.893c-2.727-16.399,2.785-31.619,12.77-42.459c13.487-14.631,21.357-33.549,21.357-53.438
	v-1.999c0-66.324,45.545-122.039,107.05-137.675C219.665,5.377,147.736,65.38,179.298,129.508z"/>
<path style="fill:#4D4D4D;" d="M204.141,231.807c-4.787,0-8.668-3.881-8.668-8.668v-13.863c0-4.787,3.881-8.668,8.668-8.668
	s8.668,3.881,8.668,8.668v13.863C212.809,227.926,208.928,231.807,204.141,231.807z"/>
<g>
	<path style="fill:#666666;" d="M326.85,182.695c-1.775,0-3.549-0.677-4.904-2.032c-3.982-3.984-9.279-6.177-14.913-6.177
		c-5.633,0-10.929,2.193-14.912,6.177c-2.709,2.708-7.1,2.709-9.806,0c-2.709-2.708-2.709-7.098-0.001-9.806
		c6.604-6.604,15.382-10.239,24.72-10.239c9.339,0,18.117,3.637,24.721,10.239c2.708,2.708,2.708,7.098-0.001,9.806
		C330.4,182.019,328.624,182.695,326.85,182.695z"/>
	<path style="fill:#666666;" d="M223.957,182.695c-1.775,0-3.549-0.677-4.904-2.031c-8.223-8.223-21.603-8.224-29.827,0
		c-2.708,2.708-7.099,2.708-9.806,0c-2.708-2.708-2.708-7.098,0-9.806c13.631-13.631,35.808-13.63,49.44,0
		c2.708,2.708,2.708,7.098,0,9.806C227.506,182.019,225.731,182.695,223.957,182.695z"/>
</g>
<g>
	<path style="fill:#4D4D4D;" d="M307.035,231.807c-4.788,0-8.668-3.881-8.668-8.668v-13.863c0-4.787,3.88-8.668,8.668-8.668
		c4.788,0,8.668,3.881,8.668,8.668v13.863C315.703,227.926,311.822,231.807,307.035,231.807z"/>
	<path style="fill:#4D4D4D;" d="M224.095,285.262c6.682,1.521,11.944,2.722,17.05,3.369c5.05,0.681,9.735,1.011,14.442,1.009
		c4.707-0.018,9.388-0.347,14.433-1.032c5.101-0.649,10.361-1.841,17.059-3.347c-1.562,6.727-6.165,12.154-11.841,15.957
		c-5.724,3.781-12.697,5.763-19.651,5.753c-6.954-0.009-13.922-1.99-19.642-5.776C230.274,297.392,225.673,291.973,224.095,285.262z
		"/>
</g>
<path style="fill:#E0B394;" d="M246.425,258.964l15.045-4.008c4.634-1.234,7.389-5.992,6.155-10.626l-10.252-38.479"/>
<path style="fill:#8381B5;" d="M191.577,477.05c11.12,1.071,21.82,2.383,32.518,3.163c10.68,0.833,21.291,1.269,31.905,1.264
	c10.614-0.01,21.224-0.446,31.902-1.279c10.698-0.784,21.397-2.089,32.522-3.148c-9.641,5.686-20.235,9.492-31.1,12.123
	c-10.884,2.583-22.106,3.867-33.324,3.858c-11.218-0.006-22.437-1.29-33.321-3.873C211.815,486.522,201.222,482.722,191.577,477.05z
	"/>
<path style="fill:#5E5E5E;" d="M334.251,128.638c-8.228,4.808-17.797,7.547-28.002,7.547c-22.12,0-41.234-12.886-50.249-31.561
	V87.588C256.001,87.588,281.368,133.85,334.251,128.638z"/>
<g>
</g>
<g>
</g>
<g>
</g>
<g>
</g>
<g>
</g>
<g>
</g>
<g>
</g>
<g>
</g>
<g>
</g>
<g>
</g>
<g>
</g>
<g>
</g>
<g>
</g>
<g>
</g>
<g>
</g>
</svg>
