<?xml version="1.0" encoding="iso-8859-1"?>
<!-- Generator: Adobe Illustrator 19.0.0, SVG Export Plug-In . SVG Version: 6.00 Build 0)  -->
<svg version="1.1" id="Layer_1" xmlns="http://www.w3.org/2000/svg" xmlns:xlink="http://www.w3.org/1999/xlink" x="0px" y="0px"
	 viewBox="0 0 512 512" style="enable-background:new 0 0 512 512;" xml:space="preserve">
<path style="fill:#72CDED;" d="M397.66,135.897v240.218c0,12.169-1.602,23.953-4.606,35.175c-1.508,5.693-3.402,11.246-5.623,16.623
	C367.067,477.269,318.472,512,261.763,512h-11.526c-36.087,0-68.889-14.063-93.228-37.022c-4.664-4.395-9.013-9.118-13.011-14.122
	c-18.564-23.24-29.658-52.699-29.658-84.741V135.897C114.34,60.847,175.187,0,250.237,0h11.526
	C336.813,0,397.66,60.847,397.66,135.897z"/>
<g>
	<path style="fill:#5FBAD3;" d="M143.586,370.344V141.659c0-73.298,55.67-133.59,127.034-140.909
		c-4.807-0.493-9.685-0.747-14.622-0.747l0,0c-78.234,0-141.656,63.422-141.656,141.656v228.685
		c0,78.234,63.422,141.656,141.656,141.656l0,0c4.938,0,9.815-0.255,14.622-0.747C199.257,503.934,143.586,443.641,143.586,370.344z
		"/>
	<path style="fill:#5FBAD3;" d="M206.037,352.536l187.017,58.754c-1.508,5.693-3.402,11.246-5.623,16.623l-46.433-14.589
		l-183.989,61.653c-4.664-4.395-9.013-9.118-13.011-14.122L312.51,404.37L114.34,342.109v-18.377l63.22,19.861l137.779-46.176
		L114.34,234.257V215.88l229.312,72.046l54.008-18.108v18.494L206.037,352.536z"/>
</g>
<circle style="fill:#F7CBA4;" cx="256" cy="143.787" r="89.557"/>
<path style="fill:#E0B394;" d="M194.867,143.791c0-44.624,32.64-81.615,75.347-88.428c-4.632-0.739-9.378-1.135-14.217-1.135
	c-49.464,0-89.563,40.099-89.563,89.563s40.099,89.563,89.563,89.563c4.84,0,9.586-0.396,14.217-1.135
	C227.508,225.406,194.867,188.415,194.867,143.791z"/>
<path style="fill:#5FBAD3;" d="M255.996,239.784c-52.93,0-95.993-43.063-95.993-95.993c0-52.931,43.063-95.993,95.993-95.993
	s95.993,43.063,95.993,95.993S308.927,239.784,255.996,239.784z M255.996,60.657c-45.84,0-83.134,37.294-83.134,83.134
	s37.294,83.134,83.134,83.134s83.134-37.294,83.134-83.134S301.837,60.657,255.996,60.657z"/>
<path style="fill:#4D4D4D;" d="M224.181,182.322c6.755,1.533,12.07,2.744,17.228,3.396c5.102,0.686,9.832,1.018,14.588,1.017
	c4.754-0.019,9.481-0.35,14.577-1.039c5.153-0.655,10.467-1.855,17.237-3.373c-1.576,6.799-6.225,12.285-11.959,16.13
	c-5.783,3.823-12.829,5.826-19.857,5.815c-7.026-0.009-14.068-2.012-19.846-5.838C230.42,194.583,225.772,189.106,224.181,182.322z"
	/>
<g>
	<path style="fill:#C99F83;" d="M231.093,152.184c-3.229,0-5.845-2.617-5.845-5.845c0-6.184-5.031-11.215-11.215-11.215
		c-6.185,0-11.217,5.031-11.217,11.215c0,3.228-2.616,5.845-5.845,5.845s-5.845-2.617-5.845-5.845
		c0-12.63,10.276-22.905,22.907-22.905c12.63,0,22.905,10.276,22.905,22.905C236.938,149.567,234.322,152.184,231.093,152.184z"/>
	<path style="fill:#C99F83;" d="M315.019,152.184c-3.229,0-5.845-2.617-5.845-5.845c0-6.184-5.031-11.215-11.215-11.215
		s-11.215,5.031-11.215,11.215c0,3.228-2.616,5.845-5.845,5.845c-3.229,0-5.845-2.617-5.845-5.845
		c0-12.63,10.276-22.905,22.905-22.905c12.63,0,22.905,10.276,22.905,22.905C320.864,149.567,318.248,152.184,315.019,152.184z"/>
</g>
<g>
</g>
<g>
</g>
<g>
</g>
<g>
</g>
<g>
</g>
<g>
</g>
<g>
</g>
<g>
</g>
<g>
</g>
<g>
</g>
<g>
</g>
<g>
</g>
<g>
</g>
<g>
</g>
<g>
</g>
</svg>
