<?xml version="1.0" encoding="iso-8859-1"?>
<!-- Generator: Adobe Illustrator 19.0.0, SVG Export Plug-In . SVG Version: 6.00 Build 0)  -->
<svg version="1.1" id="Layer_1" xmlns="http://www.w3.org/2000/svg" xmlns:xlink="http://www.w3.org/1999/xlink" x="0px" y="0px"
	 viewBox="0 0 512 512" style="enable-background:new 0 0 512 512;" xml:space="preserve">
<g>
	<path style="fill:#E0B394;" d="M131.007,211.202c-14.347-0.636-25.766-12.472-25.766-26.969c0-14.902,12.079-26.992,26.992-26.992
		c1.342,0,2.661,0.093,3.957,0.289"/>
	<path style="fill:#E0B394;" d="M369.135,211.202c14.346-0.636,25.777-12.472,25.777-26.969c0-14.902-12.09-26.992-27.004-26.992
		c-1.342,0-2.673,0.104-3.957,0.289"/>
</g>
<path style="fill:#9CA4AB;" d="M381.976,389.87V512h-263.79V389.87c0-34.339,21.948-63.564,52.573-74.382
	c1.897-0.683,3.83-1.284,5.785-1.805v-0.012c1.759-0.474,3.552-0.891,5.357-1.238h136.361c1.816,0.359,3.61,0.764,5.38,1.25
	c1.955,0.532,3.887,1.134,5.785,1.805C360.039,326.317,381.976,355.542,381.976,389.87z"/>
<path style="fill:#8A9196;" d="M215.453,312.43h-33.552c-36.306,7.069-63.715,39.06-63.715,77.436v122.128h33.552V389.866
	C151.739,351.489,179.147,319.499,215.453,312.43z"/>
<path style="fill:#F7CBA4;" d="M323.652,314.157c0,2.059-0.081,4.107-0.255,6.12c-3.112,37.764-34.744,67.44-73.306,67.44
	s-70.194-29.676-73.294-67.429c-0.185-2.025-0.266-4.061-0.266-6.132c0-0.162,0-0.312,0.012-0.474v-0.012
	c1.759-0.474,3.552-0.891,5.357-1.238h136.361c1.816,0.359,3.61,0.764,5.38,1.25C323.652,313.845,323.652,313.995,323.652,314.157z"
	/>
<path style="fill:#E0B394;" d="M323.652,314.157c0,2.059-0.081,4.107-0.255,6.12l-34.27,24.887
	c-23.29,16.915-54.818,16.915-78.096,0l-34.235-24.875c-0.185-2.025-0.266-4.061-0.266-6.132c0-0.162,0-0.312,0.012-0.474v-0.012
	c1.759-0.474,3.552-0.891,5.357-1.238h136.361c1.816,0.359,3.61,0.764,5.38,1.25C323.652,313.845,323.652,313.995,323.652,314.157z"
	/>
<path style="fill:#F7CBA4;" d="M336.622,299.093l-47.494,34.501c-23.29,16.915-54.818,16.915-78.096,0l-47.494-34.501
	c-25.095-18.234-38.678-48.396-35.693-79.276l7.196-74.417l1.041-10.818c5.669-58.717,55.014-103.515,113.997-103.515
	c29.491,0,56.565,11.2,76.985,29.734c15.029,13.641,26.437,31.261,32.546,51.312c2.198,7.196,3.714,14.717,4.466,22.468
	l8.226,85.234C375.288,250.697,361.717,280.859,336.622,299.093z"/>
<g>
	<path style="fill:#E0B394;" d="M157.4,236.622c-0.798,13.502,3.598,26.784,12.299,37.139l49.638,60.996
		c2.592,3.089,5.53,5.681,8.712,7.752c-5.97-2.083-11.709-5.068-17.019-8.92l-47.494-34.501
		c-25.095-18.234-38.666-48.385-35.681-79.264l8.226-85.246c5.623-58.138,54.054-102.635,112.285-103.48
		c-35.866,0.868-76.48,34.675-78.597,70.68L157.4,236.622z"/>
	<path style="fill:#E0B394;" d="M359.611,112.114c-19.31-7.925-43.329-11.338-69.708-0.659
		c-32.812,13.271-55.535,12.241-72.508,4.813c-0.382-0.185-0.775-0.359-1.169-0.544c-0.37-0.162-0.729-0.336-1.088-0.509
		c-3.448-1.666-6.653-3.61-9.649-5.739c-0.035,0.104-0.081,0.208-0.127,0.312c-12.958,33.263-69.465,37.07-69.465,37.07
		s-0.324-0.509-0.856-1.458l1.041-10.818c5.669-58.717,55.014-103.515,113.997-103.515c29.491,0,56.565,11.2,76.985,29.734
		C342.095,74.443,353.502,92.064,359.611,112.114z"/>
</g>
<path style="fill:#666666;" d="M406.759,135.366c0,0-51.08-60.938-116.855-34.327c-32.812,13.271-55.535,12.241-72.508,4.813
	c-0.382-0.185-0.775-0.359-1.169-0.544c-0.37-0.162-0.729-0.336-1.088-0.509c-3.448-1.666-6.653-3.61-9.649-5.739
	c-0.035,0.104-0.081,0.208-0.127,0.312c-12.958,33.263-69.465,37.07-69.465,37.07s-25.326-40.413-11.443-71.652
	C135.46,40.02,164.65,13.803,214.331,4.003C227.312,1.435,241.693,0,257.509,0C333.87,0,406.759,50.907,406.759,135.366z"/>
<path style="fill:#4D4D4D;" d="M214.331,4.003c0,0-59.249,62.106-8.967,95.37c-12.958,33.263-69.465,37.07-69.465,37.07
	s-25.326-40.413-11.443-71.652C135.46,40.02,164.65,13.803,214.331,4.003z"/>
<g>
	<rect x="330.86" y="455.305" style="fill:#F7CBA4;" width="51.115" height="56.69"/>
	<rect x="118.185" y="455.305" style="fill:#F7CBA4;" width="51.104" height="56.69"/>
</g>
<rect x="118.185" y="455.305" style="fill:#E0B394;" width="33.552" height="56.69"/>
<g>
	<path style="fill:#4D4D4D;" d="M269.36,505.246h-38.556c-3.514,0-6.363-2.848-6.363-6.363v-9.307
		c-8.508-2.704-14.688-10.678-14.688-20.069v-27.329c0-13.496,10.98-24.476,24.476-24.476h31.707
		c13.496,0,24.476,10.98,24.476,24.476v27.329c0,9.391-6.181,17.365-14.688,20.069v9.307
		C275.724,502.397,272.874,505.246,269.36,505.246z M237.167,492.519h25.829v-8.324c0-3.515,2.85-6.363,6.363-6.363
		c4.591,0,8.324-3.735,8.324-8.324v-27.329c0-6.479-5.271-11.749-11.749-11.749h-31.707c-6.479,0-11.749,5.271-11.749,11.749v27.329
		c0,4.591,3.735,8.324,8.324,8.324c3.514,0,6.363,2.848,6.363,6.363L237.167,492.519L237.167,492.519z"/>
	<path style="fill:#4D4D4D;" d="M198.572,222.539c-4.792,0-8.677-3.885-8.677-8.677v-13.879c0-4.792,3.885-8.677,8.677-8.677
		s8.677,3.885,8.677,8.677v13.879C207.249,218.653,203.364,222.539,198.572,222.539z"/>
</g>
<g>
	<path style="fill:#666666;" d="M321.421,173.372c-1.777,0-3.553-0.678-4.909-2.034c-3.987-3.988-9.289-6.184-14.93-6.184
		c-5.639,0-10.942,2.196-14.928,6.184c-2.712,2.711-7.108,2.712-9.817,0c-2.712-2.711-2.712-7.106-0.001-9.817
		c6.611-6.611,15.399-10.251,24.748-10.251c9.35,0,18.138,3.641,24.749,10.251c2.711,2.711,2.711,7.106-0.001,9.817
		C324.974,172.694,323.197,173.372,321.421,173.372z"/>
	<path style="fill:#666666;" d="M218.41,173.372c-1.777,0-3.553-0.678-4.909-2.033c-8.232-8.232-21.627-8.233-29.86,0
		c-2.711,2.711-7.107,2.711-9.817,0c-2.711-2.711-2.711-7.106,0-9.817c13.647-13.647,35.849-13.645,49.495,0
		c2.711,2.711,2.711,7.106,0,9.817C221.965,172.694,220.188,173.372,218.41,173.372z"/>
</g>
<g>
	<path style="fill:#4D4D4D;" d="M301.583,222.539c-4.793,0-8.677-3.885-8.677-8.677v-13.879c0-4.792,3.884-8.677,8.677-8.677
		c4.793,0,8.677,3.885,8.677,8.677v13.879C310.26,218.653,306.375,222.539,301.583,222.539z"/>
	<path style="fill:#4D4D4D;" d="M218.549,276.053c6.69,1.523,11.957,2.725,17.069,3.373c5.056,0.681,9.746,1.012,14.459,1.01
		c4.712-0.019,9.398-0.347,14.449-1.033c5.107-0.65,10.372-1.843,17.078-3.351c-1.564,6.735-6.172,12.168-11.854,15.976
		c-5.73,3.786-12.712,5.77-19.673,5.759c-6.962-0.009-13.938-1.992-19.664-5.783C224.736,288.197,220.13,282.772,218.549,276.053z"
		/>
</g>
<path style="fill:#E0B394;" d="M240.903,249.725l15.062-4.012c4.639-1.236,7.398-5.999,6.162-10.638l-10.264-38.523"/>
<path style="fill:#8A9196;" d="M323.641,313.683c-1.77-0.486-3.563-0.891-5.38-1.25h-0.405v1.25c0,0.139,0,0.197,0.012,0.347v0.127
	c0,37.37-30.405,67.776-67.776,67.776c-37.382,0-67.776-30.405-67.776-67.776v-0.127c0-0.127,0.012-0.255,0.012-0.382v-1.215H181.9
	c-1.805,0.347-3.598,0.764-5.357,1.238v0.012c-1.955,0.521-3.887,1.122-5.785,1.805c0.717,43.132,36.017,78.015,79.334,78.015
	c43.306,0,78.616-34.883,79.334-78.015C327.528,314.817,325.596,314.215,323.641,313.683z"/>
<g>
	<circle style="fill:#4D4D4D;" cx="236.266" cy="461.529" r="6.508"/>
	<circle style="fill:#4D4D4D;" cx="263.895" cy="461.529" r="6.508"/>
</g>
<g>
	<polygon style="fill:#8A9196;" points="169.29,455.304 169.29,398.04 157.523,455.304 	"/>
	<polygon style="fill:#8A9196;" points="330.862,455.304 330.862,398.04 342.628,455.304 	"/>
</g>
<g>
</g>
<g>
</g>
<g>
</g>
<g>
</g>
<g>
</g>
<g>
</g>
<g>
</g>
<g>
</g>
<g>
</g>
<g>
</g>
<g>
</g>
<g>
</g>
<g>
</g>
<g>
</g>
<g>
</g>
</svg>
