<?xml version="1.0" encoding="iso-8859-1"?>
<!-- Generator: Adobe Illustrator 19.0.0, SVG Export Plug-In . SVG Version: 6.00 Build 0)  -->
<svg version="1.1" id="Layer_1" xmlns="http://www.w3.org/2000/svg" xmlns:xlink="http://www.w3.org/1999/xlink" x="0px" y="0px"
	 viewBox="0 0 511.999 511.999" style="enable-background:new 0 0 511.999 511.999;" xml:space="preserve">
<g>
	<polygon style="fill:#CCCCCC;" points="414.904,511.999 101.57,511.999 138.097,399.884 378.377,399.884 	"/>
	<rect x="151.983" y="227.145" style="fill:#CCCCCC;" width="212.518" height="146.286"/>
</g>
<path style="fill:#BCBCBC;" d="M112.857,133.688C90.519,100.856,85.568,59.059,99.852,21.774l2.819-7.379
	c6.798-17.754,31.233-19.507,40.495-2.902l25.867,46.346"/>
<path style="fill:#CCCCCC;" d="M342.966,57.839l25.867-46.346c9.262-16.605,33.696-14.852,40.495,2.902l2.819,7.379
	c14.284,37.285,9.333,79.083-13.005,111.915"/>
<path style="fill:#415E72;" d="M403.345,167.148v69.773H108.463v-69.773c0-70.259,56.212-127.383,126.116-128.852
	c0.924-0.024,1.848-0.036,2.772-0.036h37.096c0.924,0,1.848,0.012,2.771,0.036C347.121,39.765,403.345,96.889,403.345,167.148z"/>
<path style="fill:#344D5B;" d="M269.334,38.261h-31.979c-71.185,0-128.892,57.707-128.892,128.892v69.769h31.979v-69.769
	C140.442,95.967,198.15,38.261,269.334,38.261z"/>
<path style="fill:#BCBCBC;" d="M364.496,234.505v138.931h-35.828c-14.959-10.044-24.801-27.123-24.801-46.488v-3.257
	c0-13.242-5.365-25.24-14.047-33.921s-20.68-14.047-33.921-14.047c-26.483,0-47.957,21.473-47.957,47.968v3.257
	c0,15.456-6.266,29.444-16.392,39.571c-2.57,2.57-5.389,4.892-8.409,6.917h-31.162V232.527c6.881-2.677,14.177-4.513,21.781-5.377
	c3.304-0.391,6.668-0.58,10.079-0.58h144.13c3.411,0,6.775,0.19,10.079,0.58C347.393,228.215,356.288,230.738,364.496,234.505z"/>
<circle style="fill:#E6E6E6;" cx="256.009" cy="273.503" r="60.985"/>
<path style="fill:#F2F2F2;" d="M96.016,282.414v12.553c0,30.906,25.054,55.961,55.961,55.961l0,0
	c30.906,0,55.961-25.054,55.961-55.961v-3.258c0-26.49,21.474-47.965,47.965-47.965l0,0c26.49,0,47.965,21.474,47.965,47.965v3.258
	c0,30.906,25.054,55.961,55.96,55.961l0,0c30.906,0,55.961-25.054,55.961-55.961v-12.554c0-48.501-39.319-87.82-87.82-87.82H183.836
	C135.335,194.594,96.016,233.913,96.016,282.414z"/>
<path style="fill:#DBDCDD;" d="M122.073,294.968v-12.553c0-48.501,39.319-87.82,87.819-87.82h-26.057
	c-48.501,0-87.819,39.319-87.819,87.82v12.553c0,30.906,25.054,55.961,55.96,55.961l0,0c4.488,0,8.846-0.544,13.028-1.541
	C140.385,343.514,122.073,321.386,122.073,294.968z"/>
<path style="fill:#638496;" d="M277.217,38.296V194.59h-42.639V38.296c0.924-0.024,1.848-0.036,2.772-0.036h37.096
	C275.37,38.261,276.293,38.272,277.217,38.296z"/>
<g>
	<path style="fill:#333333;" d="M255.903,243.744L255.903,243.744c-16.427,0-29.743-13.316-29.743-29.743v-19.408h59.486v19.408
		C285.645,230.428,272.329,243.744,255.903,243.744z"/>
	<path style="fill:#333333;" d="M184.118,179.477c-10.162,0-18.431-8.267-18.431-18.431c0-10.163,8.267-18.431,18.431-18.431
		c10.163,0,18.432,8.267,18.432,18.431C202.549,171.209,194.282,179.477,184.118,179.477z"/>
	<path style="fill:#333333;" d="M327.686,179.477c-10.162,0-18.431-8.267-18.431-18.431c0-10.163,8.267-18.431,18.431-18.431
		s18.431,8.267,18.431,18.431C346.116,171.209,337.848,179.477,327.686,179.477z"/>
</g>
<polygon style="fill:#BCBCBC;" points="188.801,399.884 159.558,511.999 101.57,511.999 138.097,399.884 "/>
<path style="fill:#FD5D65;" d="M378.377,399.884c-33.152,9.629-67.156,15.196-101.302,16.688h-37.676
	c-17.896-0.782-35.745-2.689-53.464-5.709c-16.096-2.736-32.062-6.396-47.838-10.979c4.631-15.93,9.25-31.849,13.881-47.767
	c15.338,4.453,30.889,7.924,46.559,10.399l0.012,0.012c55.217,8.765,111.891,5.294,165.947-10.411
	C369.127,368.035,373.746,383.953,378.377,399.884z"/>
<path style="fill:#E54E5C;" d="M198.549,362.527l-12.614,48.336c-16.096-2.736-32.062-6.396-47.838-10.979
	c4.631-15.93,9.25-31.849,13.881-47.767c15.338,4.453,30.889,7.924,46.559,10.399L198.549,362.527z"/>
<g>
	<path style="fill:#B3B3B3;" d="M357.152,136.247c-2.273,0-4.547-0.867-6.282-2.602c-13.598-13.598-28.571-9.748-29.203-9.577
		c-4.702,1.382-9.598-1.321-10.983-6.029c-1.385-4.707,1.355-9.656,6.061-11.041c1.028-0.302,25.44-7.164,46.689,14.085
		c3.469,3.469,3.469,9.094,0,12.562C361.699,135.378,359.424,136.247,357.152,136.247z"/>
	<path style="fill:#B3B3B3;" d="M154.654,136.247c-2.273,0-4.547-0.867-6.282-2.602c-3.469-3.469-3.469-9.094,0-12.562
		c21.251-21.249,45.661-14.387,46.689-14.085c4.707,1.385,7.4,6.322,6.016,11.029c-1.376,4.681-6.269,7.372-10.952,6.038
		c-0.809-0.217-15.677-3.931-29.19,9.581C159.199,135.378,156.925,136.247,154.654,136.247z"/>
</g>
<g>
	<circle style="fill:#FEC95B;" cx="258.236" cy="447.764" r="36.418"/>
	<path style="fill:#FEC95B;" d="M258.238,431.865c-4.907,0-8.883-3.977-8.883-8.883v-26.364c0-4.906,3.976-8.883,8.883-8.883
		c4.907,0,8.883,3.977,8.883,8.883v26.364C267.121,427.888,263.144,431.865,258.238,431.865z"/>
</g>
<circle style="fill:#EAAE44;" cx="258.236" cy="447.764" r="22.956"/>
<g>
	<circle style="fill:#CCCCCC;" cx="344.733" cy="283.7" r="8.883"/>
	<circle style="fill:#CCCCCC;" cx="364.868" cy="303.835" r="8.883"/>
	<circle style="fill:#CCCCCC;" cx="379.081" cy="283.7" r="8.883"/>
	<circle style="fill:#CCCCCC;" cx="167.072" cy="283.7" r="8.883"/>
	<circle style="fill:#CCCCCC;" cx="146.937" cy="303.835" r="8.883"/>
	<circle style="fill:#CCCCCC;" cx="132.724" cy="283.7" r="8.883"/>
</g>
<g>
</g>
<g>
</g>
<g>
</g>
<g>
</g>
<g>
</g>
<g>
</g>
<g>
</g>
<g>
</g>
<g>
</g>
<g>
</g>
<g>
</g>
<g>
</g>
<g>
</g>
<g>
</g>
<g>
</g>
</svg>
