<svg id="Layer_1" enable-background="new 0 0 512 512" height="512" viewBox="0 0 512 512" width="512" xmlns="http://www.w3.org/2000/svg"><g><g fill="#9dcfff"><path d="m0 67.308v48.425l125.373 77.37 30.027-125.795z"/><path d="m0 193.103v48.425l125.373 77.37 30.027-125.795z"/><path d="m0 318.898v48.425l125.373 77.37 30.027-125.795z"/></g><path d="m512 67.308v48.425l-125.373 77.37-30.027-125.795z" fill="#72bbff"/><path d="m512 193.103v48.425l-125.373 77.37-30.027-125.795z" fill="#72bbff"/><path d="m512 318.898v48.425l-125.373 77.37-30.027-125.795z" fill="#72bbff"/><g><path d="m0 125.373h512v261.254h-512z" fill="#e7f2ff" transform="matrix(0 1 -1 0 512 0)"/><path d="m65.313 190.687h512v130.627h-512z" fill="#d0e8ff" transform="matrix(0 1 -1 0 577.313 -65.313)"/><g><circle cx="256" cy="118.248" fill="#ff4949" r="68.876"/><path d="m256 49.372v137.752c38.039 0 68.876-30.837 68.876-68.876s-30.837-68.876-68.876-68.876z" fill="#ff001e"/><circle cx="256" cy="256" fill="#ffc373" r="68.876"/><path d="m256 187.124v137.752c38.039 0 68.876-30.837 68.876-68.876s-30.837-68.876-68.876-68.876z" fill="#ff9e00"/><circle cx="256" cy="393.752" fill="#00dc7b" r="68.876"/><path d="m256 324.876v137.752c38.039 0 68.876-30.837 68.876-68.876s-30.837-68.876-68.876-68.876z" fill="#00aa8e"/></g></g></g></svg>