<svg id="Layer_1" enable-background="new 0 0 512 512" height="512" viewBox="0 0 512 512" width="512" xmlns="http://www.w3.org/2000/svg"><g><path d="m456.708 379.273c1.508.68 2.447 2.212 2.345 3.863-1.116 18.06-12.04 66.97-13.188 80.205-1.42 16.44.21 36.77-13.89 45.3-19.62 11.87-40.539-10.93-49.089-18.7-25.95-23.56-58.019-40.3-92.149-48.1-34.789-7.95-41.319-14.35-38.929-49.6 2.44-35.98-2.64-72.54-14.78-106.49-1.49-4.17-3.98-8.71-6.3-13.4-3.99-8.06-7.46-16.52-4.42-24.16 9.08-22.83 62.299-32.24 94.608 1.29 11.16 11.56 18.17 27 19.85 42.98.45 4.21.53 8.45.21 12.67-1.36 18.18-9.52 36.44-4.77 54.04 3.78 13.99 12.12 18.66 18.92 17.15s7.02-23.62 12.67-24.62c3.57 0 11.21 1.73 20.64 4.35 4.47 1.24 9.35 2.69 14.39 4.24 6.92 2.14 14.14 4.49 21.02 6.82 4.99 1.69 9.81 3.37 14.21 4.94 8.206 2.952 14.95 5.551 18.652 7.222z" fill="#ffe4c4"/><g fill="#fdd9b1"><path d="m290.032 249.476c14.087 14.615 21.575 35.388 20.058 55.65-1.36 18.18-9.524 36.442-4.77 54.04 3.78 13.992 41.705 16.872 42.206 16.243-4.575-2.127-8.887-7.252-11.316-16.243-4.754-17.598 3.41-35.86 4.77-54.04 1.516-20.262-5.971-41.035-20.058-55.65-19.588-20.322-46.852-24.866-67.314-20.21 12.859 2.779 25.776 9.162 36.424 20.21z"/><path d="m430.145 369.27c-4.236 29.788-14.214 83.111-15.165 94.07-1.334 15.379.007 34.168-11.358 43.508 8.674 5.058 18.672 7.652 28.358 1.793 14.096-8.527 12.463-28.863 13.889-45.301 1.148-13.236 12.07-62.149 13.185-80.204.102-1.656-.847-3.187-2.359-3.869-4.843-2.184-14.863-5.944-26.55-9.997z"/></g><path d="m462.288 348.91c-.227 2.365-2.45 4.011-4.779 3.543-4.334-.871-10.789-2.424-18.283-4.363-4.56-1.17-9.5-2.49-14.58-3.87-5.81-1.59-11.8-3.27-17.6-4.95-5.07-1.46-9.99-2.92-14.53-4.3-12-3.65-21.33-6.8-23.56-8.2-6.86-4.34 2.25-27.26-5.07-28.53-28.44-4.93-37.639-13.3-65.759-19.83-28.12-6.52-63.319-13.63-87.869 1.58-33.429 20.72-119.138 13.28-149.448-61.23-12.2-29.99-16.39-63.71-9.5-95.35 11.8-54.21 58.399-96.54 111.178-113.32 52.792-16.78 110.551-10.97 163.51 5.26 27.64 8.47 54.749 19.89 77.729 37.47 22.99 17.57 41.679 41.77 48.899 69.82 6.05 23.49 9.17 70.16 4.33 93.86-4.59 22.48-24.389 22.63-19.18 46.9 1.91 8.92 15.11 25.38 18.83 33.71 9.724 21.802 7.786 29.851 5.682 51.8z" fill="#ffe4c4"/><g><path d="m456.602 297.112c-3.714-8.327-16.918-24.793-18.829-33.711-5.202-24.269 14.592-24.42 19.185-46.899 4.843-23.698 1.714-70.376-4.334-93.867-7.221-28.048-25.912-52.248-48.893-69.819-22.981-17.572-50.093-28.993-77.736-37.465-35.667-10.932-73.518-17.124-110.559-14.883 26.944 1.556 53.878 6.978 79.67 14.883 27.643 8.472 54.756 19.893 77.736 37.465 22.981 17.572 41.672 41.771 48.893 69.819 6.047 23.49 9.176 70.169 4.334 93.867-4.594 22.479-24.387 22.631-19.185 46.899 1.911 8.918 15.115 25.384 18.829 33.711 9.298 20.847 7.932 29.126 5.956 49.002 10.666 2.845 20.129 5.195 25.861 6.345 2.319.465 4.529-1.194 4.754-3.548 2.103-21.949 4.041-29.998-5.682-51.799z" fill="#fdd9b1"/></g><path d="m405.227 207.893c.639-6.334 1.594-12.763.422-19.02s-4.978-12.463-10.999-14.492c-6.943-2.34-14.38 1.382-20.48 5.445-13.198 8.791-25.281 20.282-31.089 35.057-5.808 14.776-4.098 33.238 7.178 44.397 8.79 8.699 21.899 11.773 34.237 11.148 5.227-.265 10.601-1.189 14.97-4.076 9.205-6.082 6.192-14.707 5.446-23.748-.953-11.549-.849-23.183.315-34.711z" fill="#484a5d"/><path d="m323.232 134.36s-14.785 31.698-14.362 59.592c.422 27.894 1.69 39.305-16.052 38.038-17.742-1.268-42.664-6.34-69.276 5.917.49.278 2.612-27.246 28.409-31.593 25.392-4.279 34.852-38.698 36.75-52.143 3.847-27.248 34.531-19.811 34.531-19.811z" fill="#fdd9b1"/><g fill="#f2ca9c"><path d="m326.401 127.564c-3.752-1.751-8.216-.127-9.967 3.627-.634 1.357-15.508 33.595-15.064 62.875.175 11.436.836 27.115-1.88 29.689-1.679 1.595-9.923.452-14.429.012-16.967-1.658-40.207-3.931-64.657 7.328-3.762 1.732-5.408 6.188-3.675 9.95 1.739 3.774 6.198 5.403 9.95 3.675 20.759-9.56 40.811-7.598 56.923-6.024 9.613.939 19.243 2.545 26.206-4.052 7.916-7.501 6.87-20.769 6.56-40.804-.39-25.79 13.521-56.01 13.662-56.312 1.748-3.754.124-8.214-3.629-9.964z"/><g><path d="m402.827 360.291c-1.47 5.57-4.5 16.86-5.81 20.96-1.295 4.037-5.627 6.101-9.43 4.85-3.95-1.26-6.12-5.48-4.86-9.42 1.23-3.85 4.3-15.33 5.71-20.63 4.47 1.24 9.35 2.689 14.39 4.24z"/><path d="m438.056 372.051c-1.62 6.07-4.56 16.98-5.81 20.88-1.24 3.867-5.376 6.14-9.43 4.86-3.94-1.27-6.12-5.49-4.85-9.43 1.21-3.8 4.38-15.61 5.88-21.25 4.99 1.69 9.81 3.369 14.21 4.94z"/><path d="m410.596 315.621-3.55 23.65c-5.07-1.46-9.99-2.92-14.53-4.3l3.24-21.58c.62-4.09 4.44-6.91 8.53-6.3 4.1.619 6.92 4.439 6.31 8.53z"/><path d="m442.896 324.76-3.67 23.33c-4.56-1.17-9.5-2.49-14.58-3.87l3.44-21.79c.64-4.09 4.46-6.89 8.57-6.24 4.09.64 6.89 4.48 6.24 8.57z"/></g></g></g></svg>