<svg id="Layer_1" enable-background="new 0 0 512 512" height="512" viewBox="0 0 512 512" width="512" xmlns="http://www.w3.org/2000/svg"><g><path d="m455.873 346.584c-38.495 63.366-101.109 92.387-157.998 92.387-79.359 0-83.376-61.079-134.136-64.623-66.497-4.656-93.756 58.926-87.062 106.881 1.215 8.688 2.999 17.277 5.405 25.671.733 2.557-1.178 5.1-3.839 5.1h-46.495c-1.822 0-3.428-1.226-3.878-2.99-8.273-32.482-8.352-65.43 3.308-99.193 17.981-52.065 74.148-95.415 132.293-97.177 27.589-.835 58.855 1.36 79.143-17.359 12.935-11.929 17.62-30.401 18.712-47.965 1.081-17.565-.783-35.315 1.874-52.704 4.566-29.808 23.188-57.074 49.053-72.469 2.478-1.475 2.301-5.08-.317-6.289-22.702-10.488-41.631-29.063-52.392-51.663-8.926-18.744-12.163-40.107-9.484-60.687.261-2.001 1.96-3.504 3.979-3.504h49.189c2.281 0 4.101 1.897 3.994 4.174-.823 17.598 3.212 41.082 22.763 57.915 32.183 27.691 130.975 14.896 155.99 124.704 12.646 55.475-6.467 120.891-30.102 159.791z" fill="#fa6f5f"/><g fill="#eb5e4e"><path d="m141.212 375.533c-2.659-.572-5.447-.98-8.398-1.186-66.497-4.656-93.756 58.926-87.062 106.881 1.462 10.456 3.749 20.768 6.951 30.772h25.539c2.661 0 4.572-2.544 3.839-5.101-2.406-8.394-4.19-16.983-5.405-25.671-5.879-42.122 14.442-96.294 64.536-105.695z"/><path d="m485.975 186.793c-25.015-109.808-123.807-97.013-155.99-124.704-19.55-16.833-23.585-40.317-22.762-57.915.106-2.277-1.714-4.174-3.995-4.174h-26.639c-1.668 17.905 1.329 43.886 22.471 62.089 32.183 27.691 130.975 14.896 155.99 124.704 12.646 55.475-6.467 120.892-30.102 159.791-34.88 57.416-89.562 86.633-141.843 91.614 4.621.499 9.527.773 14.771.773 56.888 0 119.502-29.02 157.998-92.387 23.634-38.9 42.747-104.316 30.101-159.791z"/></g></g></svg>