<?xml version="1.0" encoding="iso-8859-1"?>
<!-- Generator: Adobe Illustrator 19.0.0, SVG Export Plug-In . SVG Version: 6.00 Build 0)  -->
<svg version="1.1" id="Layer_1" xmlns="http://www.w3.org/2000/svg" xmlns:xlink="http://www.w3.org/1999/xlink" x="0px" y="0px"
	 viewBox="0 0 511.995 511.995" style="enable-background:new 0 0 511.995 511.995;" xml:space="preserve">
<polygon style="fill:#FD5D65;" points="145.126,33.7 145.126,82.179 73.242,134.324 73.242,33.7 "/>
<polygon style="fill:#E54E5C;" points="145.126,48.588 145.126,82.179 73.242,134.324 73.242,100.734 "/>
<rect x="59.159" y="170.434" style="fill:#E6E6E6;" width="393.661" height="341.562"/>
<rect x="59.159" y="158.856" style="fill:#CCCECE;" width="393.661" height="32.1"/>
<polygon style="fill:#62DCD2;" points="255.998,0 21.079,170.435 490.916,170.435 "/>
<rect x="161.493" y="232.385" style="fill:#B7E8ED;" width="189.016" height="174.833"/>
<circle style="fill:#415E72;" cx="256.001" cy="103.492" r="32.895"/>
<path style="fill:#54CCC0;" d="M255.998,145.073c-22.927,0-41.58-18.653-41.58-41.58s18.653-41.58,41.58-41.58
	s41.579,18.653,41.579,41.58S278.925,145.073,255.998,145.073z M255.998,79.28c-13.351,0-24.213,10.862-24.213,24.213
	s10.862,24.213,24.213,24.213s24.212-10.862,24.212-24.213S269.349,79.28,255.998,79.28z"/>
<path style="fill:#E5F8F9;" d="M350.505,232.39v174.833H161.49C313.504,389.718,336.126,232.39,336.126,232.39L350.505,232.39
	L350.505,232.39z"/>
<path style="fill:#CCCECE;" d="M152.809,223.702v192.203h206.377V223.702H152.809z M247.314,241.068v44.04h-77.139v-44.04H247.314z
	 M170.175,302.474h77.139v96.064h-77.139L170.175,302.474L170.175,302.474z M341.82,398.537h-77.139V241.068h77.139V398.537z"/>
<rect x="140.248" y="415.901" style="fill:#F2F2F2;" width="231.494" height="36.552"/>
<g>
</g>
<g>
</g>
<g>
</g>
<g>
</g>
<g>
</g>
<g>
</g>
<g>
</g>
<g>
</g>
<g>
</g>
<g>
</g>
<g>
</g>
<g>
</g>
<g>
</g>
<g>
</g>
<g>
</g>
</svg>
