<svg id="Capa_1" enable-background="new 0 0 512 512" height="512" viewBox="0 0 512 512" width="512" xmlns="http://www.w3.org/2000/svg"><g><g><path clip-rule="evenodd" d="m256 6.027c-102.216 1.664-204.431 78.618-204.431 230.475h408.863c-.001-151.857-102.216-228.811-204.432-230.475z" fill="#6d80aa" fill-rule="evenodd"/></g><g><path clip-rule="evenodd" d="m460.431 236.502-28.236 40.81 24.372 53.205c25.978.326 55.433-26.425 55.433-52.7v-20.539c0-11.443-9.333-20.777-20.776-20.777h-30.793z" fill="#ffbc85" fill-rule="evenodd"/></g><g><path clip-rule="evenodd" d="m0 257.278v20.539c0 26.275 29.425 53.026 55.432 52.699l30.911-47.022-34.775-46.993h-30.792c-11.443.001-20.776 9.334-20.776 20.777z" fill="#ffbc85" fill-rule="evenodd"/></g><g><path clip-rule="evenodd" d="m247.945 6.294c86.849 17.002 164.603 89.883 167.813 218.407 11.057 5.915 25.264 10.433 44.673 11.8 0-151.856-102.215-228.81-204.431-230.474-2.675.03-5.38.119-8.055.267z" fill="#49679b" fill-rule="evenodd"/></g><g><path clip-rule="evenodd" d="m179.078 182.256c-57.097-14.713-44.762 48.479-127.51 54.245v62.538c0 10.195 1.338 20.747 3.864 31.477 15.604 66.283 76.803 138.273 149.356 165.172 18.517 6.866 34.865 10.284 51.212 10.284s32.695-3.418 51.212-10.284c72.553-26.9 133.751-98.889 149.356-165.172 2.526-10.73 3.864-21.282 3.864-31.477v-62.538c-82.747-5.766-70.413-68.958-127.51-54.245-44.168 11.354-60.515 17.091-76.922 17.061-16.407.03-32.754-5.706-76.922-17.061z" fill="#ffe5c1" fill-rule="evenodd"/></g><g><path clip-rule="evenodd" d="m415.848 232.935v62.538c0 10.195-1.338 20.777-3.864 31.477-15.604 66.313-76.803 138.273-149.356 165.172-13.791 5.112-26.364 8.323-38.61 9.63 11.027 2.824 21.519 4.221 31.981 4.221 16.347 0 32.695-3.418 51.212-10.284 72.553-26.9 133.751-98.889 149.356-165.172 2.526-10.73 3.864-21.282 3.864-31.477v-62.538c-19.409-1.367-33.616-5.885-44.673-11.8.06 2.704.09 5.468.09 8.233z" fill="#fed1a3" fill-rule="evenodd"/></g><g><path clip-rule="evenodd" d="m178.692 429.584v-39.74-119.517c-13.643-5.588-29.098-5.588-42.741 0v184.166c13.256 11.295 27.642 21.252 42.741 29.367z" fill="#22a6fe" fill-rule="evenodd"/></g><g><path clip-rule="evenodd" d="m376.049 402.595v-132.268c-13.643-5.588-29.098-5.588-42.741 0v119.517 39.74 19.796 34.479c15.099-8.114 29.485-18.072 42.741-29.367z" fill="#22a6fe" fill-rule="evenodd"/></g><g><path clip-rule="evenodd" d="m333.308 389.844c-2.883-5.826-6.479-11.741-10.819-17.448h-132.978c-4.339 5.707-7.936 11.622-10.819 17.448v39.74c11.086-3.597 34.983-23.719 77.308-23.719s66.222 20.123 77.308 23.719z" fill="#fd4755" fill-rule="evenodd"/></g><g><path clip-rule="evenodd" d="m322.489 372.397c-14.356-18.874-36.618-35.074-66.489-35.074s-52.133 16.199-66.489 35.074z" fill="#f8f2f0" fill-rule="evenodd"/></g><g><path clip-rule="evenodd" d="m376.049 402.595v-132.268c-6.836-2.794-14.088-4.191-21.37-4.191v132.269 30.288 42.148c7.371-5.053 14.534-10.522 21.37-16.348z" fill="#0182fc" fill-rule="evenodd"/></g><g><path clip-rule="evenodd" d="m178.692 389.844v-119.517c-5.826-2.378-11.948-3.745-18.16-4.102v120.855 85.93c5.915 3.894 11.978 7.52 18.16 10.849v-54.275z" fill="#0182fc" fill-rule="evenodd"/></g><g><path clip-rule="evenodd" d="m322.489 372.397h-132.978c-4.339 5.707-7.936 11.622-10.819 17.448v.981h154.617v-.981c-2.884-5.827-6.48-11.742-10.82-17.448z" fill="#e41e2b" fill-rule="evenodd"/></g><g><path d="m393.972 290.094c-1.968 0-3.936-.747-5.443-2.241-18.78-18.627-49.337-18.626-68.117 0-3.029 3.005-7.924 2.986-10.931-.045-3.006-3.03-2.986-7.925.045-10.931 24.783-24.578 65.106-24.58 89.889 0 3.031 3.006 3.052 7.901.045 10.931-1.511 1.523-3.499 2.286-5.488 2.286z" fill="#6d80aa"/></g><g><path d="m196.614 290.094c-1.968 0-3.936-.747-5.443-2.241-18.779-18.627-49.336-18.627-68.116 0-3.031 3.005-7.925 2.986-10.931-.045-3.006-3.03-2.987-7.925.044-10.931 24.782-24.58 65.106-24.579 89.889 0 3.031 3.006 3.051 7.901.044 10.931-1.51 1.523-3.498 2.286-5.487 2.286z" fill="#6d80aa"/></g></g><g><path clip-rule="evenodd" d="m256 334.908c-28.984 0-50.585 15.718-64.515 34.032h10.354c13.218-21.339 96.256-21.172 110.14 0h8.537c-13.931-18.313-35.532-34.032-64.516-34.032z" fill="#eee1dc" fill-rule="evenodd"/></g></svg>