<svg id="Capa_1" enable-background="new 0 0 512 512" height="512" viewBox="0 0 512 512" width="512" xmlns="http://www.w3.org/2000/svg"><g><g><path clip-rule="evenodd" d="m32.824 346.898c0 73.292-7.826 86.944-25.685 113.277-11.68 17.242-8.856 17.624 7.208 20.154 41.014 6.502 67.582 2.148 103.182-14.917l52.871-.029c35.571 17.065 62.139 21.155 103.123 14.682 16.035-2.53 18.889-2.913 7.208-20.154-17.859-26.333-25.685-39.985-25.685-113.277-.677-10.622-1.765-21.096-4.148-31.217-22.007-92.71-145.549-98.683-172.853-46.223-1.147 2.207-3.178 2.118-5.355 2.471-21.624 3.471-39.866 34.277-39.866 75.233z" fill="#6d80aa" fill-rule="evenodd"/></g><g><path clip-rule="evenodd" d="m62.923 390.061c0 27.245 24.038 61.052 54.607 75.351 2.001.942 4.031 1.795 6.09 2.56 7.355 2.736 13.828 4.09 20.301 4.09 6.502 0 12.975-1.353 20.301-4.09 2.089-.765 4.148-1.648 6.179-2.589 30.54-14.329 54.548-48.076 54.548-75.322v-24.774c-32.805-2.295-27.921-27.334-50.576-21.508-17.447 4.502-23.949 6.767-30.452 6.767-6.473 0-12.975-2.266-30.452-6.767-22.625-5.826-17.741 19.213-50.547 21.508v24.774z" fill="#ffe5c1" fill-rule="evenodd"/></g><g><path clip-rule="evenodd" d="m234.834 350.252c0 72.056 7.591 105.539 24.803 131.666 4.443-.471 9.062-1.089 13.887-1.854 16.035-2.53 18.889-2.913 7.208-20.154-17.859-26.333-25.685-39.985-25.685-113.277-.677-10.622-1.765-21.096-4.148-31.217-16.064-67.672-86.235-89.121-133.575-75.381 45.074-3.501 99.475 20.449 113.362 79 2.412 10.121 3.501 20.595 4.148 31.217z" fill="#49679b" fill-rule="evenodd"/></g><g><path clip-rule="evenodd" d="m207.501 376.526c0 27.245-24.008 61.022-54.519 75.322-2.03.971-4.09 1.824-6.179 2.589-7.355 2.736-13.828 4.09-20.301 4.09s-12.975-1.353-20.301-4.09c-2.06-.765-4.119-1.618-6.12-2.56-2.913-1.353-5.796-2.913-8.591-4.619 7.709 7.414 16.564 13.711 26.038 18.154 2.001.942 4.031 1.795 6.09 2.56 7.355 2.736 13.828 4.09 20.301 4.09 6.502 0 12.975-1.353 20.301-4.09 2.089-.765 4.148-1.648 6.179-2.589 30.54-14.329 54.548-48.076 54.548-75.322v-24.774c-7.532-.53-13.093-2.266-17.447-4.531v15.77z" fill="#fed1a3" fill-rule="evenodd"/></g><g><path d="m143.936 440.486c-8.633 0-16.746-3.369-22.846-9.487-3.013-3.022-3.005-7.914.017-10.927 3.021-3.013 7.913-3.005 10.927.017 3.179 3.188 7.405 4.944 11.902 4.944 4.496 0 8.723-1.756 11.901-4.944 3.012-3.022 7.904-3.031 10.927-.017 3.022 3.013 3.03 7.905.017 10.927-6.099 6.118-14.212 9.487-22.845 9.487z" fill="#fd4755"/></g><g><path d="m122.06 394.139c-1.938 0-3.877-.724-5.378-2.179-2.786-2.702-7.495-2.701-10.28 0-3.063 2.97-7.955 2.894-10.926-.169-2.97-3.064-2.894-7.955.169-10.926 8.766-8.499 23.028-8.498 31.793 0 3.063 2.97 3.139 7.862.169 10.926-1.514 1.563-3.53 2.348-5.547 2.348z" fill="#6d80aa"/></g><g><path d="m186.847 394.139c-1.938 0-3.877-.724-5.378-2.179-2.786-2.702-7.495-2.701-10.28 0-3.064 2.97-7.955 2.894-10.926-.169-2.97-3.064-2.894-7.955.169-10.926 8.765-8.499 23.027-8.498 31.793 0 3.063 2.97 3.139 7.862.169 10.926-1.515 1.563-3.53 2.348-5.547 2.348z" fill="#6d80aa"/></g><g><path clip-rule="evenodd" d="m296.473 391.267c0 33.306 32.688 75.086 70.936 89.268 16.829 6.238 29.657 6.238 46.486 0 38.248-14.182 69.553-55.962 69.553-89.268v-49.636c-51.547-8.591-61.462-8.591-118.746-34.483-9.886-4.472-15.888.353-21.007 5.149-7.62 7.15-24.626 27.775-47.222 29.334z" fill="#ffe5c1" fill-rule="evenodd"/></g><g><path clip-rule="evenodd" d="m312.478 298.174c-17.329 15.211-15.976 35.69-16.005 64.73 22.596-1.589 39.602-22.214 47.222-29.334 5.119-4.796 11.121-9.621 21.007-5.149 57.284 25.892 67.199 25.892 118.746 34.483 27.833-24.509 30.716-70.232 27.509-105.392-2.207-24.274.736-19.036-19.86-11.74-56.137 19.831-130.456-18.978-156.141 21.949-2.942 4.678-5.267 10.416-6.826 17.389-.794 3.501.177 2.942-3.207 4.708-4.942 2.589-9.061 5.384-12.445 8.356z" fill="#6d80aa" fill-rule="evenodd"/></g><g><path clip-rule="evenodd" d="m479.064 255.099c2.413 26.539 1.353 59.051-11.239 83.972-3.589 7.032-8.062 13.476-13.652 18.978 8.326 1.442 17.771 2.942 29.275 4.855 27.833-24.509 30.716-70.232 27.509-105.392-2.207-24.274.736-19.036-19.86-11.74-4.09 1.442-8.268 2.589-12.534 3.442.119 1.737.295 3.708.501 5.885z" fill="#49679b" fill-rule="evenodd"/></g><g><path clip-rule="evenodd" d="m454.173 386.412c0 33.277-31.305 75.057-69.553 89.239-6.561 2.442-12.504 3.913-18.33 4.472.382.118.765.265 1.118.412 16.829 6.238 29.657 6.238 46.486 0 38.248-14.182 69.553-55.962 69.553-89.268v-28.363c-11.504-1.912-20.948-3.413-29.275-4.855v28.363z" fill="#fed1a3" fill-rule="evenodd"/></g><g><path d="m390.019 451.527s0 0-.001 0c-8.287 0-16.075-3.236-21.933-9.113-3.012-3.022-3.004-7.914.018-10.927 3.022-3.014 7.913-3.005 10.928.018 2.936 2.946 6.838 4.568 10.988 4.568s8.052-1.622 10.99-4.569c3.012-3.022 7.904-3.03 10.927-.018s3.03 7.905.017 10.927c-5.857 5.878-13.647 9.114-21.934 9.114z" fill="#6d80aa"/></g><g><path d="m369.291 397.404c-1.935 0-3.872-.722-5.372-2.175-2.487-2.406-6.685-2.405-9.172 0-3.066 2.968-7.958 2.887-10.925-.178-2.968-3.066-2.888-7.958.178-10.926 8.454-8.182 22.209-8.184 30.665 0 3.066 2.968 3.146 7.859.178 10.926-1.515 1.566-3.532 2.353-5.552 2.353z" fill="#6d80aa"/></g><g><path d="m430.694 397.404c-1.935 0-3.872-.722-5.372-2.175-2.496-2.415-6.708-2.413-9.2-.001-3.065 2.969-7.958 2.887-10.926-.177-2.968-3.066-2.888-7.957.177-10.926 8.462-8.192 22.231-8.192 30.695-.001 3.066 2.968 3.146 7.859.178 10.926-1.515 1.567-3.532 2.354-5.552 2.354z" fill="#6d80aa"/></g><g><path clip-rule="evenodd" d="m170.665 153.091 11.71 11.622 85.97 85.178c3.707 2.942 5.561 4.531 7.385 4.619 1.854-.088 3.707-1.677 7.414-4.619l85.941-85.178 11.739-11.622c28.892-29.923 28.892-78.911 0-108.834-26.244-27.186-68.641-20.36-96.68 4.884-5.178 4.678-7.002 7.003-8.415 6.973-1.383.029-3.207-2.295-8.385-6.973-28.039-25.245-70.436-32.071-96.68-4.884-28.891 29.923-28.891 78.912.001 108.834z" fill="#fd4755" fill-rule="evenodd"/></g><g><path clip-rule="evenodd" d="m344.136 44.934c28.892 29.923 28.892 78.911 0 108.834l-11.739 11.622-74.643 73.998 10.592 10.504c3.707 2.942 5.561 4.531 7.385 4.619 1.854-.088 3.707-1.677 7.414-4.619l85.941-85.178 11.739-11.622c28.892-29.923 28.892-78.911 0-108.834-16.741-17.33-40.072-20.861-62.051-14.564 9.268 2.618 17.948 7.59 25.362 15.24z" fill="#e41e2b" fill-rule="evenodd"/></g></g></svg>