<svg id="Capa_1" enable-background="new 0 0 512 512" height="512" viewBox="0 0 512 512" width="512" xmlns="http://www.w3.org/2000/svg"><g><g><path clip-rule="evenodd" d="m47.93 198.99c0 29.991 24.88 66.727 57.585 84.833 4.293 2.395 8.731 4.468 13.287 6.132 17.141 6.366 30.224 6.366 47.365 0 4.555-1.694 8.994-3.767 13.316-6.162 32.676-18.105 57.556-54.842 57.556-84.803v-28.91c-38.283-2.657-32.56-45.889-58.987-39.085-20.412 5.256-27.975 7.885-35.567 7.885s-15.156-2.628-35.567-7.885c-26.427-6.804-20.704 36.427-58.987 39.085v28.91z" fill="#ffe5c1" fill-rule="evenodd"/></g><g><path clip-rule="evenodd" d="m274.3 377.474 11.564 89.68 218.573.029c6.22 0 8.206-1.694 7.359-8.118l-10.513-81.533c-6.629-51.279-41.408-59.543-76.566-69.151l-43.744 29.582c-8.906 6.658-14.017 6.658-22.894 0l-43.744-29.582h-.029c-.058 0-.117 0-.175 0h-116.31c35.13 9.579 69.85 17.902 76.479 69.093z" fill="#fd4755" fill-rule="evenodd"/></g><g><path d="m444.554 467.175c0-.01 0-.01 0-.021v-46.636c0-4.265 3.461-7.726 7.726-7.726s7.726 3.461 7.726 7.726v46.636.021z" fill="#e41e2b"/></g><g><path clip-rule="evenodd" d="m142.484 63.491c-47.277.76-94.554 36.357-94.554 106.589 38.283-2.657 32.56-31.889 58.987-25.085 20.412 5.256 27.975 7.885 35.567 7.885s15.156-2.628 35.567-7.885c26.427-6.804 20.704 22.427 58.987 25.085.001-70.232-47.276-105.829-94.554-106.589z" fill="#6d80aa" fill-rule="evenodd"/></g><g><path clip-rule="evenodd" d="m274.621 198.756c0 30.078 25.026 66.961 57.848 85.095 4.293 2.365 8.702 4.41 13.199 6.103 17.171 6.366 30.311 6.366 47.482 0 39.101-14.514 71.076-57.178 71.076-91.199v-40.998c-52.271-8.702-62.345-8.702-120.398-34.955-10.045-4.556-16.119.35-21.317 5.227-7.738 7.213-24.967 28.122-47.89 29.728z" fill="#ffe5c1" fill-rule="evenodd"/></g><g><path clip-rule="evenodd" d="m290.857 104.112c-17.579 15.448-16.207 36.211-16.236 65.647 22.923-1.606 40.152-22.515 47.89-29.728 5.198-4.877 11.272-9.783 21.317-5.227 58.053 26.253 68.127 26.253 120.398 34.955 28.238-24.822 31.158-71.195 27.887-106.851-2.249-24.618.759-19.303-20.12-11.915-56.943 20.12-132.283-19.244-158.36 22.281-2.979 4.731-5.315 10.542-6.892 17.609-.818 3.563.175 2.979-3.271 4.789-5.021 2.629-9.167 5.432-12.613 8.44z" fill="#647b98" fill-rule="evenodd"/></g><g><path clip-rule="evenodd" d="m290.857 104.112c-17.579 15.448-16.207 36.211-16.236 65.647 22.923-1.606 40.152-22.515 47.89-29.728 5.198-4.877 11.272-9.783 21.317-5.227 58.053 26.253 68.127 26.253 120.398 34.955 28.238-24.822 31.158-71.195 27.887-106.851-2.249-24.618.759-19.303-20.12-11.915-56.943 20.12-132.283-19.244-158.36 22.281-2.979 4.731-5.315 10.542-6.892 17.609-.818 3.563.175 2.979-3.271 4.789-5.021 2.629-9.167 5.432-12.613 8.44z" fill="#647b98" fill-rule="evenodd"/></g><g><path clip-rule="evenodd" d="m322.512 140.031c5.198-4.877 11.272-9.783 21.317-5.227 58.053 26.253 68.127 26.253 120.398 34.955 28.238-24.822 31.158-71.195 27.887-106.851-2.249-24.618.759-19.303-20.12-11.915-56.943 20.12-132.283-19.244-158.36 22.281-2.979 4.731-5.315 10.542-6.892 17.609-.818 3.563.175 2.979-3.271 4.789-5.023 2.628-9.169 5.432-12.615 8.439-17.579 15.448-16.207 36.211-16.236 65.647 22.924-1.606 40.153-22.514 47.892-29.727z" fill="#6d80aa" fill-rule="evenodd"/></g><g><path clip-rule="evenodd" d="m314.335 308.382 43.744 35.582c8.877 6.658 13.987 6.658 22.894 0l43.744-35.582c-.029 0-.029 0-.029 0-5.315-1.46-9.549-4.877-11.564-9.432l-6.658-15.127c-4.322 2.365-69.704 2.395-73.997.029l-7.359 17.813c-1.723 4.205-5.928 6.629-10.805 6.717z" fill="#fed1a3" fill-rule="evenodd"/></g><g><path clip-rule="evenodd" d="m59.61 467.155h82.903 82.845 60.505l-11.564-89.68c-6.629-51.192-41.349-59.514-76.479-69.093-.058-.029-.088-.029-.117-.029 0-.029-.029-.029-.029-.029l-110.382.029c-6.191 1.694-12.381 3.329-18.426 5.198.38.234-34.983 17.083-52.738 41.993-2.482 6.279-4.322 13.521-5.431 21.931l-10.512 81.561c-.847 6.425 1.139 8.118 7.359 8.118h52.066z" fill="#22a6fe" fill-rule="evenodd"/></g><g><path clip-rule="evenodd" d="m205.589 156.471c6.308 6.132 14.63 12.44 31.45 13.608 0-70.231-47.277-105.829-94.554-106.588-.964 0-1.898.029-2.862.088 34.195 11.214 62.958 42.197 65.966 92.892z" fill="#49679b" fill-rule="evenodd"/></g><g><path clip-rule="evenodd" d="m205.852 194.347c0 29.962-24.88 66.669-57.556 84.803-4.322 2.395-8.76 4.468-13.316 6.133-6.045 2.249-11.593 3.709-16.995 4.351.263.117.526.234.818.321 17.141 6.366 30.224 6.366 47.365 0 4.555-1.694 8.994-3.767 13.316-6.162 32.676-18.105 57.556-54.842 57.556-84.803v-28.91c-16.82-1.168-25.142-7.476-31.45-13.608.175 2.92.263 5.899.263 8.936v28.939z" fill="#fed1a3" fill-rule="evenodd"/></g><g><path clip-rule="evenodd" d="m259.991 467.155h25.873l-11.564-89.68c-6.629-51.192-41.349-59.514-76.479-69.093-.058-.029-.088-.029-.117-.029 0-.029-.029-.029-.029-.029l-21.405 14.484c34.253 9.315 67.455 18.456 73.909 68.421z" fill="#0182fc" fill-rule="evenodd"/></g><g><path clip-rule="evenodd" d="m441.157 187.864c0 33.991-31.976 76.685-71.047 91.17-15.769 5.84-28.121 6.337-43.335 1.431 1.869 1.197 3.767 2.336 5.694 3.387 4.293 2.365 8.702 4.41 13.199 6.103 17.171 6.366 30.311 6.366 47.482 0 4.555-1.694 8.994-3.767 13.316-6.132 32.764-18.164 57.761-55.017 57.761-85.066v-28.998c-8.731-1.46-16.265-2.657-23.069-3.796v21.901z" fill="#fed1a3" fill-rule="evenodd"/></g><g><path clip-rule="evenodd" d="m469.074 59.111c3.241 35.656.321 82-27.917 106.851 6.804 1.139 14.338 2.336 23.069 3.796 28.238-24.822 31.158-71.195 27.887-106.851-2.249-24.618.759-19.303-20.12-11.915-1.168.409-2.336.788-3.504 1.139.147 2.016.322 4.323.585 6.98z" fill="#49679b" fill-rule="evenodd"/></g><g><path clip-rule="evenodd" d="m325.432 300.935c3.971 2.132 8.06 4.001 12.206 5.548 17.17 6.366 31.304 8.673 48.504 2.307 6.979-2.599 5.548-5.373 8.936 0 2.19 3.504 6.278 7.213 12.819 10.951l16.82-11.36c-.029 0-.029 0-.029 0-5.315-1.46-9.549-4.877-11.564-9.432l-6.658-15.127c-4.322 2.365-8.76 4.439-13.316 6.132-17.17 6.366-30.311 6.366-47.482 0-4.497-1.694-8.906-3.738-13.199-6.103z" fill="#ffbc85" fill-rule="evenodd"/></g><g><path clip-rule="evenodd" d="m472.899 380.57 10.542 81.562c.263 2.19.234 3.855-.204 5.052h21.2c5.315 0 7.534-1.227 7.563-5.607v-.088c0-.701-.088-1.519-.204-2.424l-10.513-81.533c-6.629-51.279-41.408-59.543-76.566-69.151l-16.82 11.36c24.12 8.849 60.155 23.362 65.002 60.829z" fill="#e41e2b" fill-rule="evenodd"/></g><g><path clip-rule="evenodd" d="m9.676 320.296c-7.709 11.535-4.789 27.217 6.454 35.247l.642.438 17.141 11.477c2.336 1.577 5.548.934 7.125-1.431l29.99-44.884c1.577-2.336.934-5.548-1.402-7.096l-.759-.496-16.382-10.98c-11.768-7.855-27.829-4.672-35.713 7.096z" fill="#ffe5c1" fill-rule="evenodd"/></g><g><path clip-rule="evenodd" d="m87.293 308.353 43.744 29.582c8.906 6.629 13.988 6.629 22.894 0l43.744-29.611c-12.381-3.387-15.652-19.332-18.193-24.53-4.322 2.395-69.675 2.424-73.967.029-2.54 5.198-5.84 21.142-18.222 24.53z" fill="#fed1a3" fill-rule="evenodd"/></g><g><path clip-rule="evenodd" d="m105.515 283.823c-1.489 3.066-3.241 9.841-6.95 15.565-.204.292 28.763 16.616 55.162 9.082 3.796-1.08 3.679-.934 7.213-2.891 3.767-2.044 6.687-1.898 8.41 2.657 1.694 4.41 4.03 9.9 7.972 13.871l20.353-13.783c-12.381-3.387-15.652-19.332-18.193-24.53-4.322 2.395-8.76 4.468-13.316 6.162-17.141 6.366-30.224 6.366-47.365 0-.292-.088-.555-.204-.818-.321-4.262-1.607-8.438-3.564-12.468-5.812z" fill="#ffbc85" fill-rule="evenodd"/></g><g><path clip-rule="evenodd" d="m38.031 333.437-14.134 21.143c-1.577 2.336-4.76 2.979-7.096 1.431l17.112 11.447c2.336 1.577 5.548.934 7.125-1.431l29.99-44.884c1.577-2.336.934-5.548-1.402-7.096l-.759-.496-16.382-10.98c2.365 1.577 2.979 4.789 1.431 7.125z" fill="#fed1a3" fill-rule="evenodd"/></g><g><path d="m51.88 467.155v-46.636c0-4.265 3.461-7.726 7.726-7.726 4.275 0 7.726 3.461 7.726 7.726v46.636zm165.756 0v-46.636c0-4.265 3.451-7.726 7.726-7.726 4.265 0 7.726 3.461 7.726 7.726v46.636z" fill="#0182fc"/></g><g><path d="m142.484 264.551c-8.57 0-16.629-3.339-22.692-9.403-3.018-3.018-3.017-7.909 0-10.927s7.909-3.018 10.927 0c3.145 3.145 7.323 4.877 11.766 4.877s8.621-1.732 11.766-4.877c3.017-3.017 7.909-3.018 10.927 0 3.017 3.017 3.018 7.909 0 10.927-6.065 6.064-14.124 9.403-22.694 9.403z" fill="#6d80aa"/></g><g><path d="m120.787 208.235c-1.931 0-3.864-.719-5.363-2.165-2.807-2.707-7.373-2.707-10.18 0-3.072 2.962-7.963 2.874-10.925-.197s-2.874-7.963.197-10.925c8.722-8.413 22.914-8.413 31.637 0 3.071 2.962 3.159 7.854.197 10.925-1.518 1.571-3.539 2.362-5.563 2.362z" fill="#6d80aa"/></g><g><path d="m164.182 208.235c-2.024 0-4.045-.79-5.562-2.362-2.962-3.071-2.874-7.962.197-10.925 8.721-8.413 22.913-8.413 31.637 0 3.071 2.962 3.159 7.854.197 10.925-2.961 3.07-7.853 3.159-10.925.197-2.807-2.708-7.374-2.707-10.18 0-1.5 1.446-3.433 2.165-5.364 2.165z" fill="#6d80aa"/></g><g><path d="m370.504 263.172c-8.584 0-16.651-3.35-22.715-9.434-3.013-3.022-3.005-7.914.017-10.927 3.021-3.013 7.913-3.005 10.927.017 3.144 3.153 7.324 4.89 11.772 4.89s8.628-1.737 11.772-4.89c3.012-3.023 7.904-3.03 10.927-.017 3.022 3.013 3.03 7.904.017 10.927-6.066 6.083-14.133 9.434-22.717 9.434z" fill="#6d80aa"/></g><g><path d="m348.792 206.862c-1.938 0-3.877-.724-5.378-2.179-2.744-2.66-7.38-2.66-10.122 0-3.063 2.969-7.954 2.895-10.926-.169-2.97-3.063-2.894-7.955.169-10.926 8.721-8.456 22.913-8.456 31.635 0 3.063 2.97 3.139 7.862.169 10.926-1.514 1.563-3.53 2.348-5.547 2.348z" fill="#6d80aa"/></g><g><path d="m392.216 206.862c-2.024 0-4.046-.79-5.562-2.362-2.963-3.071-2.874-7.963.197-10.925 8.736-8.428 22.921-8.422 31.622.014 3.063 2.97 3.139 7.862.169 10.926s-7.862 3.139-10.926.169c-2.785-2.7-7.332-2.692-10.137.014-1.499 1.445-3.432 2.164-5.363 2.164z" fill="#6d80aa"/></g></g></svg>