<svg id="Flat" height="512" viewBox="0 0 512 512" width="512" xmlns="http://www.w3.org/2000/svg"><path d="m56 295.935h240a32 32 0 0 1 32 32v160.065a0 0 0 0 1 0 0h-304a0 0 0 0 1 0 0v-160.065a32 32 0 0 1 32-32z" fill="#eb423f"/><path d="m72 296h216v192h-216z" fill="#3397e8"/><path d="m120 424h112v64h-112z" fill="#1261a0"/><path d="m104 296h144v80h-144z" fill="#e9eef2"/><path d="m152 288h48v40h-48z" fill="#f7cca9"/><circle cx="72" cy="200" fill="#f0c6a4" r="32"/><circle cx="280" cy="200" fill="#f0c6a4" r="32"/><circle cx="176" cy="72" fill="#75452e" r="48"/><rect fill="#f7cca9" height="232" rx="104" width="208" x="72" y="64"/><g fill="#452d23"><circle cx="216" cy="200" r="8"/><circle cx="136" cy="200" r="8"/><path d="m184 224h-16a8 8 0 0 1 -8-8v-16a8 8 0 0 1 16 0v8h8a8 8 0 0 1 0 16z"/></g><path d="m249.54 86.46a104 104 0 0 0 -177.54 73.54v8h120a32 32 0 0 0 32-32 32 32 0 0 0 32 32h24v-8a103.674 103.674 0 0 0 -30.46-73.54z" fill="#95573a"/><path d="m455.439 488h1.122a16 16 0 0 0 15.99-15.429l7.449-208.571h-48l7.449 208.571a16 16 0 0 0 15.99 15.429z" fill="#95573a"/><path d="m456 152a32 32 0 0 1 32 32v48a32 32 0 0 1 -32 32 32 32 0 0 1 -32-32v-56s0-24-24-24z" fill="#f7b030"/><path d="m488 184v48a32 32 0 1 1 -64 0v-9.24s32 7.75 40-15.5 24-23.26 24-23.26z" fill="#bd620e"/><path d="m424 264h64v48h-64z" fill="#5e3725" transform="matrix(-1 0 0 -1 912 576)"/><path d="m176 264c-34.932 0-46.893-27.742-47.385-28.923a8 8 0 0 1 14.749-6.2c.388.885 8.681 19.123 32.636 19.123 24.385 0 32.536-18.886 32.615-19.077a8 8 0 1 1 14.77 6.154c-.492 1.181-12.453 28.923-47.385 28.923z" fill="#452d23"/><path d="m328.019 264c-25.064 0-48.2 8.887-66.864 22.373-24.988 18.06-11.974 57.627 18.858 57.627h8.006a32 32 0 0 1 32 32 32 32 0 0 1 -32 32h-7.219c-31.889 0-44.766 40.992-18.677 59.332a114.262 114.262 0 0 0 65.896 20.668c61.856 0 112-48.353 112-108s-50.144-116-112-116z" fill="#e9eef2"/><circle cx="328.019" cy="312" fill="#1261a0" r="16"/><circle cx="384.019" cy="344" fill="#eb423f" r="16"/><circle cx="384.019" cy="408" fill="#f7b030" r="16"/><circle cx="328.019" cy="440" fill="#35a872" r="16"/></svg>