<?xml version="1.0" encoding="iso-8859-1"?>
<!-- Generator: Adobe Illustrator 19.0.0, SVG Export Plug-In . SVG Version: 6.00 Build 0)  -->
<svg version="1.1" id="Layer_1" xmlns="http://www.w3.org/2000/svg" xmlns:xlink="http://www.w3.org/1999/xlink" x="0px" y="0px"
	 viewBox="0 0 350.755 350.755" style="enable-background:new 0 0 350.755 350.755;" xml:space="preserve">
<g>
	<path style="fill:#734F42;" d="M135.296,216.195c0-3.214-2.63-5.844-5.844-5.844h-7.422c-3.214,0-5.843,2.63-5.843,5.844V344.91
		c0,3.215,2.629,5.844,5.843,5.844h7.422c3.214,0,5.844-2.629,5.844-5.844V216.195z"/>
	<path style="fill:#734F42;" d="M215.459,216.195c0-3.214,2.63-5.844,5.844-5.844h7.422c3.214,0,5.843,2.63,5.843,5.844V344.91
		c0,3.215-2.629,5.844-5.843,5.844h-7.422c-3.214,0-5.844-2.629-5.844-5.844V216.195z"/>
	<path style="fill:#9A6B58;" d="M251.079,201.436l6.851-186.488C258.268,6.727,251.813,0,243.585,0H107.17
		c-8.228,0-14.683,6.727-14.344,14.948l6.85,186.488H251.079z"/>
	<path style="fill:#E4E4E4;" d="M136.259,174.721c-8.816,0-16.317-7.208-16.668-16.017l-4.486-123.452
		c-0.352-8.809,6.574-16.017,15.39-16.017h89.767c8.816,0,15.741,7.207,15.39,16.017l-4.487,123.452
		c-0.352,8.809-7.852,16.017-16.668,16.017H136.259z"/>
	<path style="fill:#9A6B58;" d="M111.266,213.886c0-3.735-3.057-6.792-6.793-6.792h-8.626c-3.736,0-6.793,3.057-6.793,6.792v130.076
		c0,3.737,3.057,6.793,6.793,6.793h8.626c3.736,0,6.793-3.056,6.793-6.793V213.886z"/>
	<path style="fill:#9A6B58;" d="M239.489,213.886c0-3.735,3.057-6.792,6.793-6.792h8.626c3.736,0,6.793,3.057,6.793,6.792v130.076
		c0,3.737-3.057,6.793-6.793,6.793h-8.626c-3.736,0-6.793-3.056-6.793-6.793L239.489,213.886L239.489,213.886z"/>
	<path style="fill:#E4E4E4;" d="M248.52,191.386c7.279,0,13.181,5.901,13.181,13.18c0,7.28-5.902,13.182-13.181,13.182H102.235
		c-7.279,0-13.181-5.902-13.181-13.182c0-7.279,5.902-13.18,13.181-13.18L248.52,191.386L248.52,191.386z"/>
	<path style="fill:#B28978;" d="M268.493,219.311c0,3.736-3.057,6.792-6.792,6.792H89.054c-3.735,0-6.793-3.057-6.793-6.792v-12.076
		c0-3.736,3.057-6.792,6.793-6.792h172.646c3.735,0,6.792,3.057,6.792,6.792v12.076H268.493z"/>
</g>
<g>
</g>
<g>
</g>
<g>
</g>
<g>
</g>
<g>
</g>
<g>
</g>
<g>
</g>
<g>
</g>
<g>
</g>
<g>
</g>
<g>
</g>
<g>
</g>
<g>
</g>
<g>
</g>
<g>
</g>
</svg>
