<svg id="Layer_1" enable-background="new 0 0 512 512" height="512" viewBox="0 0 512 512" width="512" xmlns="http://www.w3.org/2000/svg"><g><path d="m376.181 186.957v21.943s-30.933 9.21-57.28 31.271c-7.536 6.31-11.907 15.627-11.907 25.457v242.372c0 2.209-1.791 4-4 4h-24.966c-2.209 0-4-1.791-4-4v-504c0-2.209 1.791-4 4-4h24.966c2.209 0 4 1.791 4 4v195.836c0 3.504 3.687 5.788 6.816 4.211 15.807-7.964 39.016-17.09 62.371-17.09z" fill="#fdba91"/><path d="m237.972 4v504c0 2.209-1.791 4-4 4h-24.966c-2.209 0-4-1.791-4-4v-210.186c0-12.148-5.528-23.697-15.142-31.123-25.264-19.515-52.891-27.741-52.891-27.741v-21.953c23.756 0 47.344 9.434 63.156 17.482 2.234 1.137 4.877-.497 4.877-3.004v-227.476c0-2.209 1.791-4 4-4h24.966c2.209.001 4 1.792 4 4.001z" fill="#fdba91"/><g><path d="m166.101 213.838c-2.944 8.371-3.646 17.431-1.261 25.979 13.793 49.446-4.906 108.496-45.946 116.16-44.754 8.345-89.894-37.536-101.872-102.281-3.544-19.219-4.38-46.887-.285-78.379 4.769-36.681 34.744-67.167 78.999-65.541 40.203 1.477 73.041 34.284 74.722 74.665.43 10.338-1.142 20.258-4.357 29.397z" fill="#fa6f5f"/><path d="m166.101 213.838c3.215-9.139 4.787-19.059 4.357-29.396-1.681-40.382-34.519-73.188-74.722-74.665-6.684-.245-13.036.253-19.032 1.383 34.618 6.774 61.348 36.956 62.86 73.282.43 10.338 2.245 56.089-28.983 71.558 6.131 17.497 33.145 1.014 32.187 28.613-1.232 35.493-12.337 59.149-50.121 70.243 8.593 2.297 17.428 2.767 26.248 1.122 41.04-7.664 59.739-66.714 45.946-116.16-2.385-8.549-1.684-17.609 1.26-25.98z" fill="#eb5e4e"/><path d="m345.899 213.838c2.944 8.371 3.646 17.431 1.261 25.979-13.793 49.446 4.906 108.496 45.946 116.16 44.754 8.345 89.894-37.536 101.872-102.281 3.544-19.219 4.38-46.887.285-78.379-4.769-36.681-34.744-67.167-78.999-65.541-40.203 1.477-73.041 34.284-74.722 74.665-.43 10.338 1.142 20.258 4.357 29.397z" fill="#fa6f5f"/><path d="m495.263 175.317c-4.769-36.681-34.744-67.166-78.999-65.541-4.038.148-7.997.627-11.862 1.383 33.697 6.353 55.918 33.017 59.967 64.158 4.095 31.492 3.259 59.16-.285 78.379-9.618 51.985-40.614 91.801-75.624 101.159 1.516.445 3.062.826 4.646 1.122 44.754 8.345 89.894-37.536 101.872-102.281 3.544-19.219 4.38-46.886.285-78.379z" fill="#eb5e4e"/><g fill="#d94c3d"><path d="m166.104 213.84c-2.629 7.46-3.469 15.46-1.929 23.16-11.855 10.69-30.108 22.7-56.898 30.12-4.147 1.114-8.155-1.362-9.226-5.23-1.1-3.99 1.24-8.13 5.228-9.23 38.605-10.69 57.058-31.72 63.476-40.76-.211.65-.421 1.3-.651 1.94z"/><path d="m413.95 261.89c-1.071 3.865-5.076 6.345-9.226 5.23-26.49-7.34-44.873-19.17-56.968-29.76 1.639-7.81.81-15.95-1.859-23.52-.01-.02-.01-.03-.02-.05 7.957 9.93 27.12 28.98 62.846 38.87 3.987 1.1 6.326 5.24 5.227 9.23z"/></g></g></g></svg>