<svg id="Layer_1" enable-background="new 0 0 512 512" height="512" viewBox="0 0 512 512" width="512" xmlns="http://www.w3.org/2000/svg"><g><path d="m7.726 252.563s54.757 98.437 248.274 98.437 248.274-98.437 248.274-98.437-109.923-21.724-248.274-23.396c-77.483-.937-155.918 4.416-248.274 23.396z" fill="#fc997d"/><path d="m255.999 229.166c-10.569-.128-21.158-.133-31.795-.009.297.003.593.005.89.009 108.004 1.305 198.683 14.831 233.267 20.701 7.226 1.227 10.402 9.863 5.671 15.476-21.66 25.7-84.459 81.518-223.379 85.431 5.022.14 10.123.225 15.346.225 193.516 0 248.274-98.437 248.274-98.437s-109.923-21.723-248.274-23.396z" fill="#eb866c"/><path d="m317.229 269.941c-.879-.936-21.975-22.912-61.82-22.912-39.928 0-60.358 22.075-61.208 23.015-2.768 3.059-2.53 7.762.513 10.547 3.043 2.786 7.778 2.575 10.582-.452.685-.739 17.152-18.11 50.114-18.11 32.986 0 50.119 17.385 50.907 18.204 2.841 3.001 7.572 3.135 10.579.31 3.018-2.836 3.167-7.583.333-10.602z" fill="#eb866c"/><path d="m510.153 246.091c3.31 3.49 1.995 9.159-2.545 10.813-9.078 3.308-26.878 5.958-57.863-2.833-50.141-14.226-129.842-.868-193.741-.868-63.908 0-143.61-13.358-193.751.868-30.984 8.791-48.784 6.141-57.862 2.833-4.54-1.654-5.855-7.323-2.544-10.813 28.058-29.577 89.763-39.278 126.849-60.286 39.656-22.481 63.699-24.805 86.725-24.805 15.328 0 29.812 7.176 36.583 11.097 2.476 1.434 5.525 1.434 8.001-.001 6.769-3.921 21.247-11.096 36.574-11.096 23.025 0 47.068 2.324 86.734 24.804 37.076 21.009 98.789 30.71 126.84 60.287z" fill="#fa6f5f"/><g><path d="m510.153 246.091c-28.051-29.577-89.764-39.278-126.841-60.287-39.665-22.48-63.708-24.804-86.734-24.804-3.514 0-6.977.39-10.32 1.018 17.654 2.015 37.952 7.806 66.148 23.786 37.077 21.008 98.79 30.71 126.841 60.287 3.31 3.49 1.995 9.159-2.545 10.813-1.75.638-3.828 1.25-6.259 1.761 18.582 2.839 30.339.726 37.164-1.761 4.541-1.654 5.857-7.323 2.546-10.813z" fill="#eb5e4e"/></g><path d="m333.862 213.576c-3.068-2.778-7.813-2.542-10.593.53-.221.244-22.537 24.341-67.047 24.341-18.538 0-35.608-4.099-50.739-12.183-11.342-6.06-17.286-12.221-17.345-12.282-2.838-2.999-7.568-3.141-10.581-.312-3.02 2.835-3.168 7.582-.333 10.602 1.119 1.191 27.984 29.175 78.998 29.175 51.095 0 77.089-28.083 78.17-29.278 2.78-3.071 2.543-7.814-.53-10.593z" fill="#eb5e4e"/></g></svg>