<svg id="Layer_1" enable-background="new 0 0 512 512" height="512" viewBox="0 0 512 512" width="512" xmlns="http://www.w3.org/2000/svg"><g><path d="m355.783 177.696-29.669 22.271c-9.158-12.12-39.652-43.654-70.114-43.654-36.407 0-69.784 43.221-70.114 43.654l-29.669-22.271c1.541-2.067 33.679-44.353 78.158-55.722 1.818-.465 3.082-2.11 3.082-3.987v-86.987c0-2.209 1.791-4 4-4h29.087c2.209 0 4 1.791 4 4v86.987c0 1.876 1.265 3.522 3.082 3.987 44.479 11.369 76.617 53.655 78.157 55.722z" fill="#fdba91"/><g fill="#fc997d"><path d="m237.457 65.704h37.087c4.142 0 7.5-3.358 7.5-7.5s-3.358-7.5-7.5-7.5h-37.087c-4.142 0-7.5 3.358-7.5 7.5s3.357 7.5 7.5 7.5z"/><path d="m282.043 96.371c0-4.142-3.358-7.5-7.5-7.5h-37.087c-4.142 0-7.5 3.358-7.5 7.5s3.358 7.5 7.5 7.5h37.087c4.143 0 7.5-3.358 7.5-7.5z"/><path d="m300.792 122.511c-3.809-1.629-8.216.14-9.844 3.949l-14.592 34.14c-1.628 3.809.14 8.216 3.949 9.844 3.784 1.618 8.206-.116 9.844-3.949l14.592-34.14c1.628-3.808-.14-8.216-3.949-9.844z"/><path d="m221.052 126.46c-1.628-3.81-6.037-5.577-9.844-3.949-3.809 1.628-5.577 6.036-3.949 9.844l14.592 34.14c1.633 3.82 6.044 5.572 9.844 3.949 3.809-1.628 5.577-6.036 3.949-9.844z"/></g><path d="m62.859 484.901c16.202 0 137.341 8.771 137.341-138.627s13.839-249.13-37.11-249.13-163.09 166.715-163.09 291.914c0 74.993 44.911 95.843 62.859 95.843z" fill="#fa6f5f"/><path d="m163.091 97.144c-4.709 0-9.941 1.428-15.558 4.111 32.54 20.355 21.762 114.878 21.762 245.018 0 113.557-71.892 134.418-112.316 138.014 2.167.417 4.15.613 5.88.613 16.202 0 137.341 8.771 137.341-138.627.001-147.397 13.839-249.129-37.109-249.129z" fill="#eb5e4e"/><path d="m449.141 484.901c-16.202 0-137.341 8.771-137.341-138.627s-13.839-249.13 37.11-249.13 163.09 166.715 163.09 291.914c0 74.993-44.911 95.843-62.859 95.843z" fill="#fa6f5f"/><path d="m348.909 97.144c-5.965 0-11.032 1.412-15.347 4.111 55.162 26.353 147.533 174.174 147.533 287.803 0 67.764-36.667 91.317-56.979 95.229 12.046 1.071 21.306.613 25.026.613 17.949 0 62.859-20.85 62.859-95.843-.001-125.198-112.143-291.913-163.092-291.913z" fill="#eb5e4e"/><g fill="#d94c3d"><path d="m163.092 176.296c-7.839 6.572-15.688 13.896-23.114 22.49-15.447 5.036-31.95 5.897-47.848 2.459-4.048-.876-8.04 1.697-8.916 5.745-.875 4.048 1.697 8.041 5.745 8.916 12.054 2.607 24.475 3.147 37.2 1.387-9.502 14.858-16.331 31.027-21.093 48.308-19.672 8.503-39.627 25.303-53.992 45.615-2.392 3.382-1.589 8.063 1.793 10.454 3.389 2.397 8.068 1.581 10.454-1.793 10.283-14.541 23.638-27.006 37.387-35.208-3.935 21.221-5.72 46.195-4.536 75.919.161 4.037 3.484 7.201 7.489 7.201.101 0 .203-.002.304-.006 4.139-.165 7.36-3.654 7.195-7.793-1.133-28.425-.461-57.335 6.576-85.056.235-.405.43-.831.586-1.271 4.248 11.148 11.005 21.729 20.554 29.091 3.288 2.534 7.995 1.913 10.519-1.361 2.529-3.28 1.92-7.99-1.361-10.519-13.42-10.346-19.802-30.077-20.258-44.78 9.426-20.778 23.687-40.477 44.95-58.303 3.174-2.661 3.59-7.392.929-10.566-2.658-3.174-7.388-3.589-10.563-.929z"/><path d="m460.924 311.217c-14.365-20.312-34.319-37.113-53.992-45.615-4.693-17.031-11.472-33.263-21.093-48.308 12.712 1.759 25.136 1.222 37.2-1.387 4.048-.875 6.621-4.868 5.745-8.916s-4.867-6.622-8.916-5.745c-15.897 3.438-32.401 2.577-47.848-2.459-7.426-8.594-15.275-15.918-23.114-22.49-3.174-2.661-7.905-2.245-10.566.929s-2.245 7.905.929 10.566c17.074 14.314 33.373 31.586 44.962 57.895-.35 14.744-6.726 34.747-20.271 45.189-3.281 2.529-3.89 7.239-1.361 10.519 2.526 3.276 7.234 3.893 10.519 1.361 9.549-7.362 16.306-17.943 20.554-29.091.038.108.082.215.126.321 5.66 22.704 8.444 50.695 7.037 86.006-.165 4.139 3.057 7.628 7.195 7.793.102.004.203.006.304.006 4.004 0 7.328-3.165 7.489-7.201 1.185-29.724-.601-54.698-4.536-75.919 13.749 8.203 27.104 20.667 37.387 35.208 2.391 3.382 7.073 4.184 10.454 1.793 3.385-2.393 4.188-7.073 1.796-10.455z"/></g></g></svg>