<svg viewBox="-2 0 462 462.11799" xmlns="http://www.w3.org/2000/svg"><path d="m162.886719 462.117188c-26.136719-41.824219-39.996094-90.152344-40-139.472657v-76.527343h32v76.527343c.003906 49.320313 13.863281 97.648438 40 139.472657zm0 0" fill="#3b7025"/><path d="m90.886719 95.820312c.03125-18.824218 4.496093-37.378906 13.035156-54.160156l-22.402344-33.558594c-1.484375-2.226562-3.980469-3.5625-6.65625-3.5625-2.671875 0-5.171875 1.335938-6.65625 3.5625l-19.839843 29.792969 42.519531 93.3125zm0 0" fill="#d1374a"/><path d="m226.886719 25.839844-5.484375 12.054687-34.515625 75.75v-17.824219c0-31.820312-12.640625-62.34375-35.140625-84.847656l-7.203125-7.199218c-3.121094-3.121094-8.1875-3.121094-11.308594 0l-7.203125 7.199218c-22.382812 22.585938-35 53.054688-35.144531 84.847656v35.386719l-42.519531-93.3125-5.480469-12.054687c-7.117188-12.347656-18.726563-21.476563-32.40625-25.480469-3.003907-.929687-6.277344-.019531-8.371094 2.324219-2.0976562 2.34375-2.636719 5.695312-1.378906 8.578125l17.191406 38.6875c5.910156 13.296875 8.964844 27.6875 8.964844 42.242187v65.925782c0 53.019531 42.984375 96 96 96h24c53.019531 0 96-42.980469 96-96v-65.925782c.003906-14.554687 3.058593-28.945312 8.96875-42.242187l17.191406-38.6875c1.257813-2.882813.71875-6.234375-1.378906-8.578125-2.09375-2.34375-5.367188-3.253906-8.371094-2.324219-13.679687 4.003906-25.289063 13.132813-32.410156 25.480469zm0 0" fill="#de3a4f"/><path d="m186.886719 113.644531 34.523437-75.75.664063-1.464843-20.53125-28.328126c-1.480469-2.226562-3.980469-3.5625-6.65625-3.5625-2.671875 0-5.171875 1.335938-6.652344 3.5625l-19.441406 24.59375c11.789062 18.949219 18.054687 40.808594 18.09375 63.125zm0 0" fill="#d1374a"/><path d="m371.207031 68.679688-14.046875-40.800782c-1.191406-3.464844-4.582031-5.671875-8.230468-5.367187-3.648438.304687-6.625 3.050781-7.226563 6.664062l-10.015625 59.949219c-.617188 3.3125-.828125 6.6875-.632812 10.050781 2.640624 33.28125 30.417968 58.941407 63.800781 58.941407 33.386719 0 61.164062-25.660157 63.800781-58.941407.199219-3.363281-.015625-6.738281-.632812-10.050781l-9.933594-59.808594c-.605469-3.609375-3.582032-6.347656-7.230469-6.652344-3.648437-.300781-7.035156 1.910157-8.226563 5.375l-13.746093 40.078126zm0 0" fill="#d1374a"/><path d="m387.039062 324.933594c-5.324218 3.613281-10.425781 7.546875-15.277343 11.777344 21.277343-57.109376 31.828125-117.652344 31.125-178.59375v-8h-16v8c0 97-22.910157 155.542968-43.125 207.199218-1.058594 2.714844-2.058594 5.304688-3.089844 7.953125-3 4.800781-5.75 9.753907-8.238281 14.839844 1.03125-29.253906-5.988282-58.230469-20.296875-83.765625l-37.25-66.226562 40 224 144-176zm0 0" fill="#3b7025"/><path d="m418.886719 134.117188v-59.925782c.003906-18.464844-4.296875-36.675781-12.558594-53.183594l-4.289063-8.578124c-1.355468-2.707032-4.121093-4.414063-7.152343-4.414063-3.027344 0-5.792969 1.707031-7.148438 4.414063l-4.296875 8.578124c-8.257812 16.511719-12.554687 34.71875-12.554687 53.183594v58.566406c-.285157 13.113282 9.648437 24.203126 22.714843 25.359376 6.585938.355468 13.023438-2.015626 17.808594-6.554688 4.785156-4.542969 7.488282-10.851562 7.476563-17.445312zm0 0" fill="#de3a4f"/></svg>